<?xml version="1.0" encoding="utf-8"?>
<!-- Generator: Adobe Illustrator 25.3.1, SVG Export Plug-In . SVG Version: 6.00 Build 0)  -->
<svg version="1.1" xmlns="http://www.w3.org/2000/svg" xmlns:xlink="http://www.w3.org/1999/xlink" x="0px" y="0px"
	 viewBox="0 0 1134 229.3" style="enable-background:new 0 0 1134 229.3;" xml:space="preserve">
<style type="text/css">
	.st0{fill:url(#SVGID_1_);}
	.st1{fill:#08122A;}
	.st2{fill:url(#SVGID_2_);}
	.st3{fill:url(#SVGID_3_);}
	.st4{fill:url(#SVGID_4_);}
	.st5{fill:#277BCC;}
	.st6{fill:#FFF041;}
	.st7{fill:url(#SVGID_5_);}
	.st8{fill:#BF2424;}
	.st9{fill:#FFFFFF;}
	.st10{fill:url(#SVGID_6_);}
	.st11{fill:url(#SVGID_7_);}
	.st12{fill:url(#SVGID_8_);}
	.st13{fill:url(#SVGID_9_);}
	.st14{fill:url(#SVGID_10_);}
	.st15{fill:url(#SVGID_11_);}
	.st16{fill:url(#SVGID_12_);}
	.st17{fill:url(#SVGID_13_);}
	.st18{fill:#2049A9;}
	.st19{fill:#D0DBF6;}
	.st20{fill:url(#SVGID_14_);}
	.st21{fill:url(#SVGID_15_);}
	.st22{fill:url(#SVGID_16_);}
	.st23{fill:url(#SVGID_17_);}
	.st24{fill:url(#SVGID_18_);}
	.st25{fill:url(#SVGID_19_);}
</style>
<g id="LOGO">
	<g transform="matrix(0.846479,0,0,0.846479,248.63,70.2786)">
		
			<linearGradient id="SVGID_1_" gradientUnits="userSpaceOnUse" x1="-1036.3073" y1="-648.7156" x2="-1035.8693" y2="-648.7156" gradientTransform="matrix(-23.9039 55.6621 -55.6621 -23.9039 -60800.9453 42108.6914)">
			<stop  offset="0" style="stop-color:#76DF56"/>
			<stop  offset="1" style="stop-color:#07B9BD"/>
		</linearGradient>
		<path class="st0" d="M10.2-41.7c0,0,1.1-8.7,2.1-15.8c0.7-5.3,5.1-9.3,10.5-9.5c21.8-0.6,76.3-2.2,101.9-3
			c3.3-0.1,6.5,1.3,8.6,3.9s3,5.9,2.3,9.2c-1.4,6.8-2.7,13.5-2.7,13.5"/>
	</g>
	<g transform="matrix(1.03339,0,0,1.03339,-87.1683,-34.1981)">
		<rect x="192.9" y="179.7" class="st1" width="300.5" height="33.5"/>
	</g>
	
		<linearGradient id="SVGID_2_" gradientUnits="userSpaceOnUse" x1="-312.1016" y1="-415.8157" x2="-311.6637" y2="-415.8157" gradientTransform="matrix(-5.2949 120.647 -120.647 -5.2949 -51507.7461 35467.7891)">
		<stop  offset="0" style="stop-color:#DFD756"/>
		<stop  offset="1" style="stop-color:#BD5107"/>
	</linearGradient>
	<path class="st2" d="M247.4,53.8c0,0,1.3-9.9,2.3-17.2c0.6-4.5,4.4-7.9,8.9-8c21.3-0.6,80.3-2.3,105.5-3.1c2.8-0.1,5.5,1.1,7.3,3.3
		c1.8,2.1,2.5,5,2,7.8c-1.5,7.4-3.2,15.6-3.2,15.6"/>
	<g transform="matrix(0.810386,0,0,0.810386,307.084,142.337)">
		
			<linearGradient id="SVGID_3_" gradientUnits="userSpaceOnUse" x1="-1280.7467" y1="-704.3487" x2="-1280.3087" y2="-704.3487" gradientTransform="matrix(2.4519 50.2647 -50.2647 2.4519 -32259.4727 65971.1641)">
			<stop  offset="0" style="stop-color:#DF569E"/>
			<stop  offset="1" style="stop-color:#BD0767"/>
		</linearGradient>
		<path class="st3" d="M-58.6-107.9c0,0,1.7-12.4,2.6-19.8c0.4-3,2.9-5.3,6-5.4c19.6-0.6,88.5-2.6,111.8-3.3
			c1.9-0.1,3.7,0.8,4.9,2.2c1.2,1.4,1.7,3.4,1.3,5.2c-1.6,8-3.9,19.3-3.9,19.3"/>
	</g>
	<path class="st1" d="M383.5,50.8c2.2,0,4.2,1.6,4.7,3.7l0,0c0.8,3.1,1.6,6,2.2,9.1c0.5,2.9-1.9,6-5,5.9l-7-0.2l0.1-2.7
		c2.4,0.1,4.7,0.2,7,0.2c1.4,0,2.5-1.4,2.2-2.7c-0.6-3-1.4-6-2.1-9c-0.3-1-1.3-1.8-2.4-1.7l-10.9,1l-0.2-2.7c3.6-0.3,7.3-0.7,10.9-1
		C383.2,50.8,383.2,50.8,383.5,50.8z"/>
	
		<linearGradient id="SVGID_4_" gradientUnits="userSpaceOnUse" x1="-314.2327" y1="-407.2029" x2="-313.7946" y2="-407.2029" gradientTransform="matrix(-2.3084 61.4029 -61.4029 -2.3084 -25414.9062 18403.3047)">
		<stop  offset="0" style="stop-color:#56C5DF"/>
		<stop  offset="1" style="stop-color:#079BBD"/>
	</linearGradient>
	<path class="st4" d="M237.6,76.6V49.1l138.1-4.5l13.4,34.6l-88,3.2"/>
	<path class="st5" d="M389,79.2l-5.8,0.2c1.6-1.1,3.2-2.1,4.7-3.1L389,79.2z M237.6,67.1l22.2,11.5l-22.2-2.1L237.6,67.1L237.6,67.1
		z M380.2,56.4l5.4,14.1l-99.8,0.4L380.2,56.4z M237.6,64.6v-6.1l133.9-6L237.6,64.6z"/>
	<path class="st1" d="M354.6,61.9c9.6,0.1,19.1,3.4,26.7,9.2l16.1,12.4c0.6,0.7,0.9,0.8,1.1,1.7c0.4,1.7-1,3.6-2.8,3.6
		c-1,0-1.1-0.2-2-0.6c-5.4-4.2-10.8-8.3-16.2-12.5c-6.6-5-14.9-7.8-23.2-7.8c-35.2,0.1-70.3,0.2-105.5,0.5
		c-6.6,0.1-13.1,1.8-18.8,5.1l-14.9,8.6c-0.9,0.3-1.1,0.5-2,0.3c-1.7-0.3-2.9-2.3-2.3-4c0.3-0.9,0.6-1,1.3-1.6
		c8.3-4.8,16.3-10.5,25.3-13c3.7-1,7.5-1.5,11.4-1.6c35.1-0.2,70.2-0.3,105.3-0.5C354.3,61.9,354.4,61.9,354.6,61.9z"/>
	<g transform="matrix(1.03339,0,0,1.03339,-87.1683,-34.1981)">
		<path class="st6" d="M198.3,211.4H114l-14.2-49.5l128.9-5L273,105h203.8l47.7,54.2l-14.2,52.1h-37c-6.3-14.4-22.2-25.4-38.4-25.4
			s-27.2,10.9-27,25.4H264.7c-6.4-14.7-22.6-25.8-39-25.8S198.1,196.7,198.3,211.4z"/>
	</g>
	<g transform="matrix(1.03339,0,0,1.03339,-87.1683,-34.1981)">
		
			<linearGradient id="SVGID_5_" gradientUnits="userSpaceOnUse" x1="-133.5868" y1="-373.6437" x2="-133.1488" y2="-373.6437" gradientTransform="matrix(6.200340e-15 97.6779 -97.6779 6.200340e-15 -36184.8242 13213.5566)">
			<stop  offset="0" style="stop-color:#FFAE41"/>
			<stop  offset="1" style="stop-color:#FFAE41;stop-opacity:0"/>
		</linearGradient>
		<path class="st7" d="M101.3,167.2l0.1-0.9h143.5v5l33.3,30.1l103.2,2.8v-37.9h8.1v37.1h19.6l0,0c-0.8,2.5-1.2,5.2-1.1,8H264.7
			c-6.4-14.7-22.6-25.8-39-25.8s-27.6,11.1-27.4,25.8h-84.4L101.3,167.2z M510.3,211.4h-37c-4.3-9.9-13.2-18.1-23.5-22.3l36.3-22.8
			h36.4L510.3,211.4z M409.2,202.8L409.2,202.8L409.2,202.8L409.2,202.8z M409.4,202.4L409.4,202.4L409.4,202.4L409.4,202.4z
			 M409.7,201.7L409.7,201.7L409.7,201.7L409.7,201.7z M410.1,200.5L410.1,200.5L410.1,200.5L410.1,200.5z M410.7,199.4L410.7,199.4
			L410.7,199.4L410.7,199.4z M411.7,197.7L411.7,197.7L411.7,197.7L411.7,197.7z M412.4,196.7L412.4,196.7L412.4,196.7L412.4,196.7z
			 M413.1,195.7L413.1,195.7L413.1,195.7L413.1,195.7z M413.6,195.1L413.6,195.1L413.6,195.1L413.6,195.1z M413.9,194.8L413.9,194.8
			L413.9,194.8L413.9,194.8z M414.4,194.2L414.4,194.2L414.4,194.2L414.4,194.2z M414.7,193.9L414.7,193.9L414.7,193.9L414.7,193.9z
			 M415.2,193.3L415.2,193.3L415.2,193.3L415.2,193.3z M415.6,193L415.6,193L415.6,193L415.6,193z M415.8,192.8L415.8,192.8
			L415.8,192.8L415.8,192.8z M416.2,192.5L416.2,192.5L416.2,192.5L416.2,192.5z M416.5,192.2L416.5,192.2L416.5,192.2L416.5,192.2z
			 M416.7,192L416.7,192L416.7,192L416.7,192z M417.1,191.7L417.1,191.7L417.1,191.7L417.1,191.7z M417.5,191.4L417.5,191.4
			L417.5,191.4L417.5,191.4z M417.7,191.3L417.7,191.3L417.7,191.3L417.7,191.3z M418.1,191L418.1,191L418.1,191L418.1,191z
			 M418.3,190.8L418.3,190.8L418.3,190.8L418.3,190.8z M418.6,190.7L418.6,190.7L418.6,190.7L418.6,190.7z M418.8,190.5L418.8,190.5
			L418.8,190.5L418.8,190.5z M419.2,190.3L419.2,190.3L419.2,190.3L419.2,190.3z M419.4,190.1L419.4,190.1L419.4,190.1L419.4,190.1z
			 M419.6,190L419.6,190L419.6,190L419.6,190z M419.9,189.9L419.9,189.9L419.9,189.9L419.9,189.9z M420.3,189.6L420.3,189.6
			L420.3,189.6L420.3,189.6z M420.5,189.5L420.5,189.5L420.5,189.5L420.5,189.5z M420.7,189.4L420.7,189.4L420.7,189.4L420.7,189.4z
			 M421,189.2L421,189.2L421,189.2L421,189.2z M421.4,189L421.4,189L421.4,189L421.4,189z M449.6,188.9L449.6,188.9L449.6,188.9
			L449.6,188.9z M421.7,188.9L421.7,188.9L421.7,188.9L421.7,188.9z M421.9,188.8L421.9,188.8L421.9,188.8L421.9,188.8z
			 M422.2,188.7L422.2,188.7L422.2,188.7L422.2,188.7z M448.9,188.7L448.9,188.7L448.9,188.7L448.9,188.7z M448.7,188.6L448.7,188.6
			L448.7,188.6L448.7,188.6z M422.4,188.6L422.4,188.6L422.4,188.6L422.4,188.6z M422.6,188.5L422.6,188.5L422.6,188.5L422.6,188.5z
			 M422.9,188.4L422.9,188.4L422.9,188.4L422.9,188.4z M448,188.4L448,188.4L448,188.4L448,188.4z M447.8,188.3L447.8,188.3
			L447.8,188.3L447.8,188.3z M423.1,188.3L423.1,188.3L423.1,188.3L423.1,188.3z M423.4,188.2L423.4,188.2L423.4,188.2L423.4,188.2z
			 M447.3,188.1L447.3,188.1L447.3,188.1L447.3,188.1z M423.6,188.1L423.6,188.1L423.6,188.1L423.6,188.1z M447.1,188L447.1,188
			L447.1,188L447.1,188z M423.8,188L423.8,188L423.8,188L423.8,188z M446.9,188L446.9,188L446.9,188L446.9,188z M424.1,187.9
			L424.1,187.9L424.1,187.9L424.1,187.9z M446.4,187.8L446.4,187.8L446.4,187.8L446.4,187.8z M424.3,187.8L424.3,187.8L424.3,187.8
			L424.3,187.8z M446.2,187.7L446.2,187.7L446.2,187.7L446.2,187.7z M424.6,187.7L424.6,187.7L424.6,187.7L424.6,187.7z M446,187.7
			L446,187.7L446,187.7L446,187.7z M424.9,187.6L424.9,187.6L424.9,187.6L424.9,187.6z M445.5,187.5L445.5,187.5L445.5,187.5
			L445.5,187.5z M425.1,187.5L425.1,187.5L425.1,187.5L425.1,187.5z M445.3,187.5L445.3,187.5L445.3,187.5L445.3,187.5z
			 M425.4,187.4L425.4,187.4L425.4,187.4L425.4,187.4z M445.1,187.4L445.1,187.4L445.1,187.4L445.1,187.4z M425.6,187.4L425.6,187.4
			L425.6,187.4L425.6,187.4z M444.8,187.4L444.8,187.4L444.8,187.4L444.8,187.4z M444.6,187.3L444.6,187.3L444.6,187.3L444.6,187.3z
			 M425.9,187.3L425.9,187.3L425.9,187.3L425.9,187.3z M444.4,187.2L444.4,187.2L444.4,187.2L444.4,187.2z M426.2,187.2L426.2,187.2
			L426.2,187.2L426.2,187.2z M444.1,187.2L444.1,187.2L444.1,187.2L444.1,187.2z M426.4,187.1L426.4,187.1L426.4,187.1L426.4,187.1z
			 M443.9,187.1L443.9,187.1L443.9,187.1L443.9,187.1z M426.7,187.1L426.7,187.1L426.7,187.1L426.7,187.1z M443.7,187.1L443.7,187.1
			L443.7,187.1L443.7,187.1z M443.4,187L443.4,187L443.4,187L443.4,187z M443.2,187L443.2,187L443.2,187L443.2,187z M427.2,186.9
			L427.2,186.9L427.2,186.9L427.2,186.9z M443,186.9L443,186.9L443,186.9L443,186.9z M427.5,186.9L427.5,186.9L427.5,186.9
			L427.5,186.9z M442.7,186.9L442.7,186.9L442.7,186.9L442.7,186.9z M442.5,186.8L442.5,186.8L442.5,186.8L442.5,186.8z
			 M427.7,186.8L427.7,186.8L427.7,186.8L427.7,186.8z M442.3,186.8L442.3,186.8L442.3,186.8L442.3,186.8z M428,186.7L428,186.7
			L428,186.7L428,186.7z M442,186.7L442,186.7L442,186.7L442,186.7z M428.3,186.7L428.3,186.7L428.3,186.7L428.3,186.7z
			 M441.8,186.7L441.8,186.7L441.8,186.7L441.8,186.7z M428.6,186.6L428.6,186.6L428.6,186.6L428.6,186.6z M441.6,186.6L441.6,186.6
			L441.6,186.6L441.6,186.6z M428.9,186.6L428.9,186.6L428.9,186.6L428.9,186.6z M441.1,186.5L441.1,186.5L441.1,186.5L441.1,186.5z
			 M429.1,186.5L429.1,186.5L429.1,186.5L429.1,186.5z M440.9,186.5L440.9,186.5L440.9,186.5L440.9,186.5z M429.4,186.5L429.4,186.5
			L429.4,186.5L429.4,186.5z M440.6,186.5L440.6,186.5L440.6,186.5L440.6,186.5z M440.4,186.4L440.4,186.4L440.4,186.4L440.4,186.4z
			 M429.7,186.4L429.7,186.4L429.7,186.4L429.7,186.4z M440.1,186.4L440.1,186.4L440.1,186.4L440.1,186.4z M430,186.4L430,186.4
			L430,186.4L430,186.4z M439.9,186.4L439.9,186.4L439.9,186.4L439.9,186.4z M430.3,186.3L430.3,186.3L430.3,186.3L430.3,186.3z
			 M439.7,186.3L439.7,186.3L439.7,186.3L439.7,186.3z M430.5,186.3L430.5,186.3L430.5,186.3L430.5,186.3z M439.4,186.3L439.4,186.3
			L439.4,186.3L439.4,186.3z M439.2,186.3L439.2,186.3L439.2,186.3L439.2,186.3z M430.8,186.3L430.8,186.3L430.8,186.3L430.8,186.3z
			 M439,186.2L439,186.2L439,186.2L439,186.2z M431.1,186.2L431.1,186.2L431.1,186.2L431.1,186.2z M438.7,186.2L438.7,186.2
			L438.7,186.2L438.7,186.2z M431.4,186.2L431.4,186.2L431.4,186.2L431.4,186.2z M438.5,186.2L438.5,186.2L438.5,186.2L438.5,186.2z
			 M431.7,186.2L431.7,186.2L431.7,186.2L431.7,186.2z M438.3,186.2L438.3,186.2L438.3,186.2L438.3,186.2z M438,186.2L438,186.2
			L438,186.2L438,186.2z M432,186.1L432,186.1L432,186.1L432,186.1z M437.8,186.1L437.8,186.1L437.8,186.1L437.8,186.1z
			 M432.3,186.1L432.3,186.1L432.3,186.1L432.3,186.1z M437.5,186.1L437.5,186.1L437.5,186.1L437.5,186.1z M432.6,186.1L432.6,186.1
			L432.6,186.1L432.6,186.1z M437.3,186.1L437.3,186.1L437.3,186.1L437.3,186.1z M437.1,186.1L437.1,186.1L437.1,186.1L437.1,186.1z
			 M432.8,186.1L432.8,186.1L432.8,186.1L432.8,186.1z M436.8,186.1L436.8,186.1L436.8,186.1L436.8,186.1z M433.2,186.1L433.2,186.1
			L433.2,186.1L433.2,186.1z M436.6,186.1L436.6,186.1L436.6,186.1L436.6,186.1z M433.4,186.1L433.4,186.1L433.4,186.1L433.4,186.1z
			 M436.4,186.1L436.4,186.1L436.4,186.1L436.4,186.1z M433.7,186L433.7,186L433.7,186L433.7,186z M436.1,186L436.1,186L436.1,186
			L436.1,186z M435.9,186L435.9,186L435.9,186L435.9,186z M434,186L434,186L434,186L434,186z M435.6,186L435.6,186L435.6,186
			L435.6,186z M434.3,186L434.3,186L434.3,186L434.3,186z M435.4,186L435.4,186L435.4,186L435.4,186z M434.7,186L434.7,186
			L434.7,186L434.7,186z M435.2,186L435.2,186L435.2,186L435.2,186z"/>
	</g>
	<path class="st8" d="M449.7,149.2l-8,29.2c-7.4,0.2-21.1,0.7-21.1,0.7l9.2-29.7L449.7,149.2z"/>
	<path class="st9" d="M19.8,146.6l19.6,0.6c0,0,8,26.1,5.5,26.8c-1,0.3-8.6,0.7-17.1,0.7L19.8,146.6z"/>
	<g transform="matrix(1.03339,0,0,1.03339,-87.1683,-34.1981)">
		
			<linearGradient id="SVGID_6_" gradientUnits="userSpaceOnUse" x1="-125.2602" y1="-394.9151" x2="-124.8222" y2="-394.9151" gradientTransform="matrix(5.166950e-15 -82.8124 82.8124 5.166950e-15 33078.7656 -10181.6953)">
			<stop  offset="0" style="stop-color:#FFAE41"/>
			<stop  offset="1" style="stop-color:#FFAE41;stop-opacity:0"/>
		</linearGradient>
		<path class="st10" d="M381.4,155.6v48.5l-103.2-2.8l-33.3-30.1v-14.2l33.3-5L381.4,155.6z M409.1,203.3h-19.6V154l78.6-5.3
			l36.9,5.8L449.8,189c-4.8-1.9-9.8-3-14.9-3C422,186,412.3,193.1,409.1,203.3z"/>
	</g>
	<g transform="matrix(1.03339,0,0,1.03339,-87.1683,-34.1981)">
		<path class="st1" d="M283.6,114.2l-39.2,43.2l137.4,0.2v-41.7L283.6,114.2z"/>
	</g>
	<g transform="matrix(1.03339,0,0,1.03339,-87.1683,-34.1981)">
		<path class="st1" d="M388.8,115.7v41.7l116.8-2.6L465.7,113L388.8,115.7z"/>
	</g>
	<g transform="matrix(1.03339,0,0,1.03339,-87.1683,-34.1981)">
		
			<linearGradient id="SVGID_7_" gradientUnits="userSpaceOnUse" x1="-139.7151" y1="-372.0117" x2="-139.2772" y2="-372.0117" gradientTransform="matrix(28.3103 62.3982 -62.3982 28.3103 -18841.6543 19355.7949)">
			<stop  offset="0" style="stop-color:#B0F0D2"/>
			<stop  offset="1" style="stop-color:#B0F0D2;stop-opacity:0"/>
		</linearGradient>
		<path class="st11" d="M472.6,120.2l-77.8,37.1l-6,0.1v-25.2l25.7-14.8c0.9-0.5,2-0.4,2.8,0.3c0.7,0.7,0.9,1.8,0.4,2.8l0,0
			c-0.5,0.9-0.3,2,0.4,2.8s1.9,0.9,2.8,0.3l16.7-9.7l28.1-1L472.6,120.2z"/>
	</g>
	<g transform="matrix(1.03339,0,0,1.03339,-87.1683,-34.1981)">
		
			<linearGradient id="SVGID_8_" gradientUnits="userSpaceOnUse" x1="-137.0823" y1="-373.4576" x2="-136.6444" y2="-373.4576" gradientTransform="matrix(27.7326 81.4644 -81.4644 27.7326 -26189.4238 21645.9336)">
			<stop  offset="0" style="stop-color:#B0F0D2"/>
			<stop  offset="1" style="stop-color:#B0F0D2;stop-opacity:0"/>
		</linearGradient>
		<path class="st12" d="M480.7,128.7l15.5,16.3l-22.1,10.5l-85.4,1.9v-0.6c11.4-4.5,22.5-8.9,28.3-11.1c0.7-0.3,1.4-0.1,1.9,0.4
			c0.5,0.5,0.6,1.3,0.3,1.9l0,0c-0.5,1.1-0.2,2.5,0.7,3.4c0.9,0.9,2.3,1,3.4,0.4c7.5-4.3,18.7-10.8,25.9-14.9c0.9-0.5,2-0.4,2.8,0.3
			s0.9,1.9,0.4,2.8l0,0c-0.5,0.9-0.3,2,0.4,2.8s1.9,0.9,2.8,0.3L480.7,128.7z"/>
	</g>
	<g transform="matrix(1.03339,0,0,1.03339,-87.1683,-34.1981)">
		
			<linearGradient id="SVGID_9_" gradientUnits="userSpaceOnUse" x1="-133.8298" y1="-378.8694" x2="-133.3919" y2="-378.8694" gradientTransform="matrix(53.1541 131.1514 -131.1514 53.1541 -42292.3594 37776.8984)">
			<stop  offset="0" style="stop-color:#B0F0D2"/>
			<stop  offset="1" style="stop-color:#B0F0D2;stop-opacity:0"/>
		</linearGradient>
		<path class="st13" d="M316.9,114.8l45.9,0.8L275,157.5l-30.6,0l22.8-25.1c0.8,0.3,1.7,0.3,2.5-0.2c7.5-4.3,18.7-10.8,25.9-14.9
			c0.9-0.5,2-0.4,2.8,0.3c0.7,0.7,0.9,1.8,0.4,2.8l0,0c-0.5,0.9-0.3,2,0.4,2.8c0.7,0.7,1.9,0.9,2.8,0.3L316.9,114.8z"/>
	</g>
	<g transform="matrix(1.03339,0,0,1.03339,-87.1683,-34.1981)">
		
			<linearGradient id="SVGID_10_" gradientUnits="userSpaceOnUse" x1="-136.3355" y1="-376.4713" x2="-135.8975" y2="-376.4713" gradientTransform="matrix(38.7101 88.9752 -88.9752 38.7101 -27900.8027 26820.6387)">
			<stop  offset="0" style="stop-color:#B0F0D2"/>
			<stop  offset="1" style="stop-color:#B0F0D2;stop-opacity:0"/>
		</linearGradient>
		<path class="st14" d="M381.8,118.9v25.8l-27,12.9l-81.6-0.1c9.8-3.9,18.9-7.5,24-9.4c0.7-0.3,1.4-0.1,1.9,0.4
			c0.5,0.5,0.6,1.3,0.3,1.9l0,0c-0.5,1.1-0.2,2.5,0.7,3.4c0.9,0.9,2.3,1,3.4,0.4c7.5-4.3,18.7-10.8,25.9-14.9c0.9-0.5,2-0.4,2.8,0.3
			c0.7,0.7,0.9,1.9,0.4,2.8l0,0c-0.5,0.9-0.3,2,0.4,2.8s1.9,0.9,2.8,0.3L381.8,118.9z"/>
	</g>
	<g transform="matrix(1.03339,0,0,1.03339,-87.1683,-34.1981)">
		
			<linearGradient id="SVGID_11_" gradientUnits="userSpaceOnUse" x1="-141.1702" y1="-371.8511" x2="-140.7322" y2="-371.8511" gradientTransform="matrix(8.6664 43.3321 -43.3321 8.6664 -14780.2803 9527.123)">
			<stop  offset="0" style="stop-color:#566697"/>
			<stop  offset="1" style="stop-color:#21336A"/>
		</linearGradient>
		<path class="st15" d="M99.3,182.6L115,186l8.3,25.6l-15.9,0.8L99.3,182.6z"/>
	</g>
	<g transform="matrix(1.30951,0,0.268298,1.19595,-729.332,-204.039)">
		
			<linearGradient id="SVGID_12_" gradientUnits="userSpaceOnUse" x1="680.9234" y1="-212.3838" x2="681.3613" y2="-212.3838" gradientTransform="matrix(-139.1645 -184.6257 151.5203 -119.3549 127556.4766 100709.0703)">
			<stop  offset="0" style="stop-color:#08122A"/>
			<stop  offset="1" style="stop-color:#37508A"/>
		</linearGradient>
		<path class="st16" d="M606.5,307.7c11.9,0,21.6,10,21.6,22.4c0,12.4-9.7,22.4-21.6,22.4s-21.6-10-21.6-22.4
			S594.6,307.7,606.5,307.7z"/>
	</g>
	<g transform="matrix(1.30951,0,0.268298,1.19595,-235.931,-204.039)">
		
			<linearGradient id="SVGID_13_" gradientUnits="userSpaceOnUse" x1="16.9792" y1="-213.2606" x2="17.4172" y2="-213.2606" gradientTransform="matrix(-139.1645 -184.6257 151.5203 -119.3549 35080.1211 -21976.7578)">
			<stop  offset="0" style="stop-color:#08122A"/>
			<stop  offset="1" style="stop-color:#37508A"/>
		</linearGradient>
		<path class="st17" d="M394.8,307.7c11.9,0,21.6,10,21.6,22.4c0,12.4-9.6,22.4-21.6,22.4s-21.6-10-21.6-22.4
			S382.9,307.7,394.8,307.7z"/>
	</g>
	<g transform="matrix(0.610175,0,0.125015,0.557261,332.406,465.755)">
		
			<ellipse transform="matrix(0.4943 -0.8693 0.8693 0.4943 331.8986 -416.519)" class="st18" cx="-192.1" cy="-493.5" rx="16" ry="30.2"/>
	</g>
	<g transform="matrix(0.610175,0,0.125015,0.557261,825.807,465.755)">
		
			<ellipse transform="matrix(0.4943 -0.8693 0.8693 0.4943 102.0977 -811.5485)" class="st18" cx="-646.5" cy="-493.5" rx="16" ry="30.2"/>
	</g>
	<g transform="matrix(0.263692,0,0.0540263,0.240825,858.439,797.601)">
		
			<ellipse transform="matrix(0.4943 -0.8693 0.8693 0.4943 1099.7716 -3149.1782)" class="st19" cx="-2157" cy="-2519.9" rx="16" ry="30.2"/>
	</g>
	<g transform="matrix(0.263692,0,0.0540263,0.240825,1351.84,797.601)">
		
			<ellipse transform="matrix(0.4943 -0.8693 0.8693 0.4943 568.0162 -4063.262)" class="st19" cx="-3208.5" cy="-2519.9" rx="16" ry="30.2"/>
	</g>
	<g transform="matrix(1.03339,0,0,1.03339,-87.1683,-34.1981)">
		
			<linearGradient id="SVGID_14_" gradientUnits="userSpaceOnUse" x1="-138.1307" y1="-371.574" x2="-137.6927" y2="-371.574" gradientTransform="matrix(2.2186 51.0279 -51.0279 2.2186 -18495.4883 8064.3779)">
			<stop  offset="0" style="stop-color:#566697"/>
			<stop  offset="1" style="stop-color:#21336A"/>
		</linearGradient>
		<path class="st20" d="M117,196.4l6.1,18.8l78.6,0.1l-5.9-18.6L117,196.4z"/>
	</g>
	<g transform="matrix(1.03339,0,0,1.03339,249.162,-34.1981)">
		
			<linearGradient id="SVGID_15_" gradientUnits="userSpaceOnUse" x1="-778.6963" y1="-368.666" x2="-778.2584" y2="-368.666" gradientTransform="matrix(2.2186 51.0279 -51.0279 2.2186 -17074.6777 40743.1406)">
			<stop  offset="0" style="stop-color:#566697"/>
			<stop  offset="1" style="stop-color:#21336A"/>
		</linearGradient>
		<path class="st21" d="M-65.9,196.4l6.1,18.8L87.2,215l-5.9-18.6L-65.9,196.4z"/>
	</g>
	<g transform="matrix(-1.03339,0,0,1.03339,3028.82,-34.1981)">
		
			<linearGradient id="SVGID_16_" gradientUnits="userSpaceOnUse" x1="99.8228" y1="-405.9595" x2="100.2608" y2="-405.9595" gradientTransform="matrix(2.2186 51.0279 -51.0279 2.2186 -18418.6621 -4001.1487)">
			<stop  offset="0" style="stop-color:#566697"/>
			<stop  offset="1" style="stop-color:#21336A"/>
		</linearGradient>
		<path class="st22" d="M2486.8,196.4l6.1,18.8l48.9-0.1l8-18.6L2486.8,196.4z"/>
	</g>
	<g transform="matrix(1.03339,0,0,1.03339,-87.1683,-34.1981)">
		
			<linearGradient id="SVGID_17_" gradientUnits="userSpaceOnUse" x1="-121.2004" y1="-397.5045" x2="-120.7624" y2="-397.5045" gradientTransform="matrix(-0.4622 -49.9185 49.9185 -0.4622 19947.5078 -6009.6973)">
			<stop  offset="0" style="stop-color:#566697"/>
			<stop  offset="1" style="stop-color:#182752"/>
		</linearGradient>
		<path class="st23" d="M197.9,203.7l3.7,11.6l-78.6-0.1l-3.6-11.1L197.9,203.7z"/>
	</g>
	<g transform="matrix(1.03339,0,0,1.03339,249.162,-34.1981)">
		
			<linearGradient id="SVGID_18_" gradientUnits="userSpaceOnUse" x1="-761.5765" y1="-400.4827" x2="-761.1385" y2="-400.4827" gradientTransform="matrix(-0.4622 -49.9185 49.9185 -0.4622 19651.4883 -37978.0273)">
			<stop  offset="0" style="stop-color:#566697"/>
			<stop  offset="1" style="stop-color:#182752"/>
		</linearGradient>
		<path class="st24" d="M83.5,203.4l3.7,11.6l-147.1,0.2l-3.6-11.1L83.5,203.4z"/>
	</g>
	<g transform="matrix(-1.03339,0,0,1.03339,3028.82,-34.1981)">
		
			<linearGradient id="SVGID_19_" gradientUnits="userSpaceOnUse" x1="114.9211" y1="-362.3233" x2="115.3591" y2="-362.3233" gradientTransform="matrix(-0.4622 -49.9185 49.9185 -0.4622 20658.1895 5793.4741)">
			<stop  offset="0" style="stop-color:#566697"/>
			<stop  offset="1" style="stop-color:#182752"/>
		</linearGradient>
		<path class="st25" d="M2547.2,203.5l-5.5,11.6l-48.9,0.1l-3.6-11.1L2547.2,203.5z"/>
	</g>
	<g transform="matrix(1,-0.082818,0,1,13.7149,128.516)">
		<path class="st1" d="M306-64.1c0-0.8-0.3-1.5-0.9-2.1c-0.6-0.6-1.3-0.9-2-0.9c-4.3,0-12.3,0-15.8,0c-1,0-1.8,0.8-1.8,1.8l0,0
			c0,0.8,0.3,1.5,0.9,2.1s1.3,0.9,2,0.9c4.3,0,12.3,0,15.8,0C305.2-62.3,306-63.1,306-64.1L306-64.1z"/>
	</g>
</g>
<g id="TEXT">
	<g>
		<path class="st9" d="M555.4,127.1c0,13.2-3.8,23.4-11.3,30.4S525.7,168,511.5,168h-22.8V87.6H514c13.1,0,23.3,3.5,30.6,10.4
			C551.8,105,555.4,114.6,555.4,127.1z M537.7,127.5c0-17.3-7.6-25.9-22.9-25.9h-9.1V154h7.3C529.5,154,537.7,145.1,537.7,127.5z"/>
		<path class="st9" d="M621.3,168l-5.8-19.1h-29.3l-5.8,19.1H562l28.4-80.7h20.8l28.5,80.7H621.3z M611.4,134.6
			c-5.4-17.3-8.4-27.2-9.1-29.4c-0.7-2.3-1.2-4.1-1.5-5.4c-1.2,4.7-4.7,16.3-10.4,34.8H611.4z"/>
		<path class="st9" d="M674.9,120.7l16.8-33.1H710l-26.7,49.1V168h-16.9v-30.7l-26.7-49.7h18.5L674.9,120.7z"/>
		<path class="st9" d="M734.1,168h-5.6l15.9-75.2h-23.8l1.1-5.2h53.5l-1,5.2H750L734.1,168z"/>
		<path class="st9" d="M782.7,133.2l-7.2,34.8h-5.7l17-80.4h16.7c15.8,0,23.6,6.6,23.6,19.8c0,6.7-1.9,12.2-5.7,16.7
			s-9,7.2-15.5,8.4c7.4,21.7,11.4,33.5,12.2,35.6H812l-11.6-34.8H782.7z M783.9,128.2h13.9c7.6,0,13.4-1.8,17.4-5.3
			c4-3.5,6-8.7,6-15.5c0-9.8-6-14.7-18.1-14.7h-11.6L783.9,128.2z"/>
		<path class="st9" d="M832.8,168l17-80.4h5.4l-17,80.4H832.8z"/>
		<path class="st9" d="M917.8,107.4c0,18.3-11.2,27.5-33.5,27.5h-11.1l-7.1,33.1h-5.7l17-80.4h17.3c7.4,0,13.1,1.7,17,5.1
			C915.9,96.1,917.8,101,917.8,107.4z M874.1,129.9h10.5c9.2,0,16.1-1.8,20.5-5.3s6.7-9.1,6.7-16.8c0-10-6-15.1-18.1-15.1h-11.6
			L874.1,129.9z"/>
		<path class="st9" d="M980.8,107.4c0,18.3-11.2,27.5-33.5,27.5h-11.1l-7.1,33.1h-5.7l17-80.4h17.3c7.4,0,13.1,1.7,17,5.1
			C978.8,96.1,980.8,101,980.8,107.4z M937.1,129.9h10.5c9.2,0,16.1-1.8,20.5-5.3s6.7-9.1,6.7-16.8c0-10-6-15.1-18.1-15.1h-11.6
			L937.1,129.9z"/>
		<path class="st9" d="M1026.4,168h-40l17-80.4h40l-1.2,5.2H1008l-6.4,30.4h32.5l-1.2,5.2h-32.3l-7.4,34.5h34.5L1026.4,168z"/>
		<path class="st9" d="M1058,133.2l-7.2,34.8h-5.7l17-80.4h16.7c15.8,0,23.6,6.6,23.6,19.8c0,6.7-1.9,12.2-5.7,16.7s-9,7.2-15.5,8.4
			c7.4,21.7,11.4,33.5,12.2,35.6h-6.1l-11.6-34.8H1058z M1059.2,128.2h13.9c7.6,0,13.4-1.8,17.4-5.3c4-3.5,6-8.7,6-15.5
			c0-9.8-6-14.7-18.1-14.7h-11.6L1059.2,128.2z"/>
	</g>
</g>
</svg>
