<?xml version="1.0" encoding="utf-8"?>
<!-- Generator: Adobe Illustrator 25.3.1, SVG Export Plug-In . SVG Version: 6.00 Build 0)  -->
<svg version="1.1" id="LOGO" xmlns="http://www.w3.org/2000/svg" xmlns:xlink="http://www.w3.org/1999/xlink" x="0px" y="0px"
	 viewBox="0 0 472.95 229.29" style="enable-background:new 0 0 472.95 229.29;" xml:space="preserve">
<style type="text/css">
	.st0{fill:url(#SVGID_1_);}
	.st1{fill:#08122A;}
	.st2{fill:url(#SVGID_2_);}
	.st3{fill:url(#SVGID_3_);}
	.st4{fill:url(#SVGID_4_);}
	.st5{fill:#277BCC;}
	.st6{fill:#FFF041;}
	.st7{fill:url(#SVGID_5_);}
	.st8{fill:#BF2424;}
	.st9{fill:#FFFFFF;}
	.st10{fill:url(#SVGID_6_);}
	.st11{fill:url(#SVGID_7_);}
	.st12{fill:url(#SVGID_8_);}
	.st13{fill:url(#SVGID_9_);}
	.st14{fill:url(#SVGID_10_);}
	.st15{fill:url(#SVGID_11_);}
	.st16{fill:url(#SVGID_12_);}
	.st17{fill:url(#SVGID_13_);}
	.st18{fill:#2049A9;}
	.st19{fill:#D0DBF6;}
	.st20{fill:url(#SVGID_14_);}
	.st21{fill:url(#SVGID_15_);}
	.st22{fill:url(#SVGID_16_);}
	.st23{fill:url(#SVGID_17_);}
	.st24{fill:url(#SVGID_18_);}
	.st25{fill:url(#SVGID_19_);}
</style>
<g transform="matrix(0.846479,0,0,0.846479,248.63,70.2786)">
	
		<linearGradient id="SVGID_1_" gradientUnits="userSpaceOnUse" x1="-471.4286" y1="897.196" x2="-470.9906" y2="897.196" gradientTransform="matrix(-28.2392 65.7572 65.7572 28.2392 -72230.1797 5596.2129)">
		<stop  offset="0" style="stop-color:#76DF56"/>
		<stop  offset="1" style="stop-color:#07B9BD"/>
	</linearGradient>
	<path class="st0" d="M10.18-41.71c0,0,1.15-8.69,2.09-15.83c0.7-5.3,5.14-9.3,10.48-9.46c21.77-0.64,76.29-2.23,101.92-2.97
		c3.32-0.1,6.51,1.33,8.65,3.87c2.14,2.54,3,5.92,2.34,9.18c-1.37,6.77-2.74,13.55-2.74,13.55"/>
</g>
<g transform="matrix(1.03339,0,0,1.03339,-87.1683,-34.1981)">
	<rect x="192.92" y="179.73" class="st1" width="300.46" height="33.49"/>
</g>
<linearGradient id="SVGID_2_" gradientUnits="userSpaceOnUse" x1="-154.6157" y1="836.4314" x2="-154.1778" y2="836.4314" gradientTransform="matrix(-5.2949 120.647 120.647 5.2949 -101419.8906 14240.4688)">
	<stop  offset="0" style="stop-color:#DFD756"/>
	<stop  offset="1" style="stop-color:#BD5107"/>
</linearGradient>
<path class="st2" d="M247.41,53.78c0,0,1.31-9.89,2.28-17.24c0.59-4.48,4.35-7.87,8.87-8c21.29-0.62,80.29-2.34,105.45-3.08
	c2.81-0.08,5.51,1.12,7.32,3.28c1.81,2.15,2.54,5.01,1.99,7.77c-1.49,7.38-3.16,15.62-3.16,15.62"/>
<g transform="matrix(0.810386,0,0,0.810386,307.084,142.337)">
	
		<linearGradient id="SVGID_3_" gradientUnits="userSpaceOnUse" x1="-575.7402" y1="847.4861" x2="-575.3022" y2="847.4861" gradientTransform="matrix(3.0256 62.0256 62.0256 -3.0256 -50819.7188 38142.625)">
		<stop  offset="0" style="stop-color:#DF569E"/>
		<stop  offset="1" style="stop-color:#BD0767"/>
	</linearGradient>
	<path class="st3" d="M-58.64-107.93c0,0,1.65-12.45,2.62-19.78c0.4-3.01,2.93-5.29,5.97-5.38c19.62-0.57,88.48-2.58,111.82-3.26
		c1.89-0.06,3.7,0.76,4.92,2.2c1.22,1.45,1.71,3.37,1.34,5.22c-1.62,7.98-3.92,19.35-3.92,19.35"/>
</g>
<path class="st1" d="M383.52,50.81c2.16,0.04,4.16,1.57,4.73,3.7l0.01,0.05c0.75,3.06,1.56,6.05,2.18,9.14
	c0.54,2.93-1.91,5.99-5.05,5.9l-6.98-0.25l0.1-2.69c2.35,0.08,4.7,0.22,7.04,0.25c1.35,0,2.51-1.38,2.24-2.74
	c-0.65-3.01-1.38-6-2.15-8.98c-0.28-1.02-1.31-1.76-2.38-1.68l-10.9,0.99l-0.25-2.68c3.64-0.33,7.29-0.69,10.94-0.99
	C383.21,50.82,383.24,50.81,383.52,50.81z"/>
<linearGradient id="SVGID_4_" gradientUnits="userSpaceOnUse" x1="-158.2254" y1="826.501" x2="-157.7874" y2="826.501" gradientTransform="matrix(-2.3084 61.4029 61.4029 2.3084 -50800.8945 7856.0986)">
	<stop  offset="0" style="stop-color:#56C5DF"/>
	<stop  offset="1" style="stop-color:#079BBD"/>
</linearGradient>
<path class="st4" d="M237.59,76.55v-27.5L375.7,44.6l13.35,34.58l-87.96,3.24"/>
<path class="st5" d="M389.04,79.18l-5.81,0.21c1.65-1.05,3.24-2.08,4.72-3.05L389.04,79.18z M237.59,67.06l22.17,11.54l-22.17-2.05
	V67.06z M380.24,56.38l5.44,14.09l-99.76,0.42L380.24,56.38z M237.59,64.57v-6.08l133.86-5.99L237.59,64.57z"/>
<path class="st1" d="M354.58,61.88c9.63,0.08,19.13,3.37,26.72,9.17l16.09,12.36c0.61,0.67,0.89,0.8,1.09,1.72
	c0.37,1.66-1.02,3.55-2.79,3.63c-0.95,0.04-1.15-0.2-1.95-0.62c-5.41-4.16-10.82-8.34-16.24-12.48c-6.65-5.03-14.88-7.79-23.16-7.82
	c-35.17,0.06-70.34,0.23-105.51,0.46c-6.59,0.07-13.13,1.85-18.84,5.14l-14.91,8.61c-0.85,0.31-1.08,0.52-2.01,0.35
	c-1.68-0.3-2.9-2.3-2.29-3.96c0.32-0.89,0.62-0.98,1.31-1.56c8.31-4.8,16.34-10.49,25.33-12.96c3.7-1.01,7.53-1.54,11.36-1.58
	c35.11-0.22,70.23-0.3,105.34-0.46C354.27,61.88,354.42,61.88,354.58,61.88z"/>
<g transform="matrix(1.03339,0,0,1.03339,-87.1683,-34.1981)">
	<path class="st6" d="M198.32,211.37h-84.37L99.72,161.9l128.85-5.04L273,105.03h203.79l47.69,54.2l-14.22,52.13H473.3
		c-6.32-14.45-22.24-25.35-38.38-25.35c-16.14,0-27.17,10.9-27,25.35H264.67c-6.38-14.71-22.56-25.81-38.97-25.81
		S198.1,196.66,198.32,211.37z"/>
</g>
<g transform="matrix(1.03339,0,0,1.03339,-87.1683,-34.1981)">
	
		<linearGradient id="SVGID_5_" gradientUnits="userSpaceOnUse" x1="-68.1607" y1="840.6899" x2="-67.7227" y2="840.6899" gradientTransform="matrix(6.000000e-15 94.5218 94.5218 -6.000000e-15 -79151.625 6607.7549)">
		<stop  offset="0" style="stop-color:#FFAE41"/>
		<stop  offset="1" style="stop-color:#FFAE41;stop-opacity:0"/>
	</linearGradient>
	<path class="st7" d="M101.25,167.2l0.09-0.94h143.52v5.03l33.32,30.09l103.21,2.75v-37.87h8.09v37.06h19.6l-0.01,0.04
		c-0.78,2.5-1.17,5.19-1.14,8.01H264.67c-6.38-14.71-22.56-25.81-38.97-25.81s-27.61,11.1-27.39,25.81h-84.37L101.25,167.2z
		 M510.26,211.37H473.3c-4.33-9.9-13.16-18.14-23.48-22.34l36.33-22.76h36.41L510.26,211.37z M409.23,202.84L409.23,202.84
		L409.23,202.84L409.23,202.84z M409.39,202.37L409.39,202.37L409.39,202.37L409.39,202.37z M409.66,201.67L409.66,201.67
		L409.66,201.67L409.66,201.67z M410.14,200.53L410.14,200.53L410.14,200.53L410.14,200.53z M410.68,199.41L410.68,199.41
		L410.68,199.41L410.68,199.41z M411.67,197.71L411.67,197.71L411.67,197.71L411.67,197.71z M412.35,196.69L412.35,196.69
		L412.35,196.69L412.35,196.69z M413.09,195.7L413.09,195.7L413.09,195.7L413.09,195.7z M413.55,195.13L413.55,195.13L413.55,195.13
		L413.55,195.13z M413.88,194.76L413.88,194.76L413.88,194.76L413.88,194.76z M414.38,194.21L414.38,194.21L414.38,194.21
		L414.38,194.21z M414.72,193.85L414.72,193.85L414.72,193.85L414.72,193.85z M415.24,193.33L415.24,193.33L415.24,193.33
		L415.24,193.33z M415.6,192.99l-0.01,0.01L415.6,192.99L415.6,192.99z M415.79,192.83L415.79,192.83L415.79,192.83L415.79,192.83z
		 M416.16,192.49l-0.01,0.01L416.16,192.49L416.16,192.49z M416.54,192.18l-0.01,0.01L416.54,192.18L416.54,192.18z M416.73,192.02
		L416.73,192.02L416.73,192.02L416.73,192.02z M417.13,191.7l-0.02,0.01L417.13,191.7L417.13,191.7z M417.52,191.4l-0.01,0.01
		L417.52,191.4L417.52,191.4z M417.73,191.25l-0.01,0.01L417.73,191.25L417.73,191.25z M418.14,190.96l-0.02,0.02l0.01-0.01
		L418.14,190.96z M418.34,190.82L418.34,190.82L418.34,190.82L418.34,190.82z M418.55,190.68l-0.02,0.01L418.55,190.68
		L418.55,190.68z M418.77,190.53l-0.02,0.01l0.01-0.01L418.77,190.53z M419.19,190.26l-0.03,0.02l0.01-0.01L419.19,190.26z
		 M419.4,190.13L419.4,190.13L419.4,190.13L419.4,190.13z M419.62,190l-0.02,0.01L419.62,190L419.62,190z M419.85,189.86l-0.03,0.02
		l0.01-0.01L419.85,189.86z M420.29,189.61l-0.03,0.02l0.02-0.01L420.29,189.61z M420.52,189.48l-0.02,0.01l0,0L420.52,189.48z
		 M420.74,189.36l-0.02,0.01L420.74,189.36L420.74,189.36z M420.98,189.24l-0.03,0.02l0.01-0.01L420.98,189.24z M421.43,189.01
		l-0.03,0.02l0.02-0.01L421.43,189.01z M449.59,188.94L449.59,188.94L449.59,188.94L449.59,188.94z M421.67,188.89l-0.03,0.01
		l0.01,0L421.67,188.89z M421.89,188.78l-0.02,0.01L421.89,188.78L421.89,188.78z M422.15,188.67l-0.04,0.02l0.02-0.01
		L422.15,188.67z M448.92,188.68L448.92,188.68L448.92,188.68L448.92,188.68z M448.69,188.59L448.69,188.59L448.69,188.59
		L448.69,188.59z M422.37,188.57L422.37,188.57L422.37,188.57L422.37,188.57z M422.62,188.46l-0.04,0.02l0.02-0.01L422.62,188.46z
		 M422.86,188.35l-0.03,0.01l0.01,0L422.86,188.35z M448.02,188.35l0.01,0l-0.03-0.01L448.02,188.35z M447.79,188.27L447.79,188.27
		L447.79,188.27L447.79,188.27z M423.09,188.25l-0.02,0.01L423.09,188.25L423.09,188.25z M423.35,188.15l-0.04,0.02l0.02-0.01
		L423.35,188.15z M447.34,188.11L447.34,188.11l-0.01,0L447.34,188.11z M423.59,188.06l-0.01,0.01L423.59,188.06L423.59,188.06z
		 M447.11,188.03l0.02,0.01l-0.04-0.01L447.11,188.03z M423.84,187.96l-0.04,0.01l0.02-0.01L423.84,187.96z M446.88,187.96
		l0.02,0.01L446.88,187.96L446.88,187.96z M424.1,187.86l-0.04,0.01l0.01-0.01L424.1,187.86z M446.43,187.82L446.43,187.82
		l-0.02-0.01L446.43,187.82z M424.33,187.78l-0.01,0L424.33,187.78L424.33,187.78z M446.2,187.74l0.03,0.01l-0.04-0.01L446.2,187.74
		z M424.6,187.68l-0.04,0.02l0.02-0.01L424.6,187.68z M445.97,187.67l0.02,0.01L445.97,187.67L445.97,187.67z M424.85,187.6
		l-0.03,0.01l0.01,0L424.85,187.6z M445.51,187.54l0.02,0l-0.04-0.01L445.51,187.54z M425.1,187.51l-0.04,0.01l0.02-0.01
		L425.1,187.51z M445.28,187.48l0.03,0.01l-0.05-0.01L445.28,187.48z M425.37,187.43l-0.04,0.01l0.02-0.01L425.37,187.43z
		 M445.05,187.41l0.02,0.01L445.05,187.41L445.05,187.41z M425.6,187.36L425.6,187.36L425.6,187.36L425.6,187.36z M444.82,187.35
		L444.82,187.35L444.82,187.35L444.82,187.35z M444.59,187.29l0.02,0.01l-0.05-0.01L444.59,187.29z M425.88,187.27l-0.04,0.01
		l0.02-0.01L425.88,187.27z M444.36,187.23l0.03,0.01l-0.05-0.01L444.36,187.23z M426.15,187.2l-0.03,0.01l0.01,0L426.15,187.2z
		 M444.12,187.17l0.02,0L444.12,187.17L444.12,187.17z M426.4,187.12l-0.04,0.01l0.03-0.01L426.4,187.12z M443.89,187.11
		L443.89,187.11l-0.02-0.01L443.89,187.11z M426.68,187.05l-0.05,0.01l0.02-0.01L426.68,187.05z M443.66,187.06l0.02,0.01
		l-0.06-0.01L443.66,187.06z M443.43,187l0.04,0.01l-0.06-0.01L443.43,187z M443.2,186.95l0.01,0L443.2,186.95L443.2,186.95z
		 M427.21,186.92l-0.05,0.01l0.03-0.01L427.21,186.92z M442.96,186.9l0.01,0l-0.04-0.01L442.96,186.9z M427.48,186.85l-0.04,0.01
		l0.01,0L427.48,186.85z M442.73,186.85l0.03,0.01l-0.07-0.01L442.73,186.85z M442.5,186.8l0.04,0.01l-0.06-0.01L442.5,186.8z
		 M427.74,186.79l-0.04,0.01l0.02-0.01L427.74,186.79z M442.26,186.75l0.01,0L442.26,186.75L442.26,186.75z M428.02,186.73
		l-0.05,0.01l0.02,0L428.02,186.73z M442.03,186.71l0.01,0l-0.05-0.01L442.03,186.71z M428.27,186.68L428.27,186.68L428.27,186.68
		L428.27,186.68z M441.79,186.66l0.04,0.01l-0.07-0.01L441.79,186.66z M428.56,186.62l-0.05,0.01l0.03-0.01L428.56,186.62z
		 M441.56,186.62l0.04,0.01l-0.06-0.01L441.56,186.62z M428.85,186.56l-0.04,0.01l0.01,0L428.85,186.56z M441.08,186.54l0.02,0
		l-0.06-0.01L441.08,186.54z M429.11,186.52l-0.04,0.01L429.11,186.52L429.11,186.52z M440.85,186.5l0.04,0.01l-0.07-0.01
		L440.85,186.5z M429.4,186.47l-0.05,0.01l0.02,0L429.4,186.47z M440.62,186.46l0.04,0.01l-0.06-0.01L440.62,186.46z M440.38,186.43
		L440.38,186.43L440.38,186.43L440.38,186.43z M429.67,186.42l-0.02,0l0,0L429.67,186.42z M440.14,186.39l0.02,0l-0.07-0.01
		L440.14,186.39z M429.96,186.38l-0.05,0.01l0.03,0L429.96,186.38z M439.91,186.36l0.04,0.01l-0.07-0.01L439.91,186.36z
		 M430.25,186.34l-0.05,0.01l0.02,0L430.25,186.34z M439.67,186.33l0.04,0.01l-0.06-0.01L439.67,186.33z M430.51,186.3l-0.03,0
		L430.51,186.3L430.51,186.3z M439.44,186.3L439.44,186.3l-0.03,0L439.44,186.3z M439.2,186.27l0.02,0l-0.07-0.01L439.2,186.27z
		 M430.82,186.26l-0.06,0.01l0.03,0L430.82,186.26z M438.96,186.24l0.04,0l-0.07-0.01L438.96,186.24z M431.09,186.23l-0.03,0l0.01,0
		L431.09,186.23z M438.72,186.22l0.04,0L438.72,186.22L438.72,186.22z M431.38,186.2l-0.05,0.01l0.03,0L431.38,186.2z
		 M438.49,186.19L438.49,186.19l-0.04,0L438.49,186.19z M431.69,186.17l-0.05,0l0.02,0L431.69,186.17z M438.25,186.17l0.03,0
		l-0.07-0.01L438.25,186.17z M438.01,186.15l0.04,0l-0.07-0.01L438.01,186.15z M431.95,186.14l-0.02,0L431.95,186.14L431.95,186.14z
		 M437.78,186.13l0.04,0L437.78,186.13L437.78,186.13z M432.26,186.12l-0.06,0l0.03,0L432.26,186.12z M437.54,186.11L437.54,186.11
		l-0.04,0L437.54,186.11z M432.55,186.1l-0.03,0l0.01,0L432.55,186.1z M437.3,186.1l0.04,0l-0.07,0L437.3,186.1z M437.06,186.08
		l0.04,0l-0.07,0L437.06,186.08z M432.84,186.08l-0.05,0l0.03,0L432.84,186.08z M436.83,186.07l0.03,0L436.83,186.07L436.83,186.07z
		 M433.15,186.06l-0.05,0l0.02,0L433.15,186.06z M436.59,186.06l0.01,0l-0.06,0L436.59,186.06z M433.42,186.05l-0.01,0
		L433.42,186.05L433.42,186.05z M436.35,186.05l0.04,0l-0.07,0L436.35,186.05z M433.74,186.04l-0.06,0l0.04,0L433.74,186.04z
		 M436.11,186.04l0.05,0l-0.07,0L436.11,186.04z M435.88,186.03l0.02,0L435.88,186.03L435.88,186.03z M434.04,186.03l-0.04,0h0.01
		L434.04,186.03z M435.64,186.02l0.02,0l-0.06,0L435.64,186.02z M434.33,186.02l-0.04,0l0.03,0L434.33,186.02z M435.4,186.02l0.04,0
		l-0.07,0L435.4,186.02z M434.65,186.02l-0.06,0l0.03,0H434.65z M435.16,186.02l0.04,0l-0.07,0H435.16z"/>
</g>
<path class="st8" d="M449.69,149.17l-7.96,29.18c-7.39,0.21-21.06,0.66-21.06,0.66l9.19-29.68L449.69,149.17z"/>
<path class="st9" d="M19.77,146.61l19.62,0.59c0,0,8.03,26.12,5.54,26.8c-1.01,0.28-8.56,0.7-17.08,0.71L19.77,146.61z"/>
<g transform="matrix(1.03339,0,0,1.03339,-87.1683,-34.1981)">
	
		<linearGradient id="SVGID_6_" gradientUnits="userSpaceOnUse" x1="-55.3166" y1="866.2192" x2="-54.8786" y2="866.2192" gradientTransform="matrix(5.000000e-15 -80.1366 -80.1366 -5.000000e-15 69790.7891 -4241.4858)">
		<stop  offset="0" style="stop-color:#FFAE41"/>
		<stop  offset="1" style="stop-color:#FFAE41;stop-opacity:0"/>
	</linearGradient>
	<path class="st10" d="M381.38,155.61v48.53l-103.21-2.75l-33.32-30.09v-14.24l33.32-5L381.38,155.61z M409.07,203.32h-19.6v-49.34
		l78.62-5.34l36.88,5.82l-55.15,34.56c-4.75-1.93-9.81-3.01-14.89-3.01C421.95,186.02,412.28,193.06,409.07,203.32z"/>
</g>
<g transform="matrix(1.03339,0,0,1.03339,-87.1683,-34.1981)">
	<path class="st1" d="M283.58,114.22l-39.24,43.22l137.44,0.19v-41.7L283.58,114.22z"/>
</g>
<g transform="matrix(1.03339,0,0,1.03339,-87.1683,-34.1981)">
	<path class="st1" d="M388.79,115.73v41.7l116.77-2.65l-39.85-41.76L388.79,115.73z"/>
</g>
<g transform="matrix(1.03339,0,0,1.03339,-87.1683,-34.1981)">
	
		<linearGradient id="SVGID_7_" gradientUnits="userSpaceOnUse" x1="-76.0324" y1="839.6637" x2="-75.5945" y2="839.6637" gradientTransform="matrix(27.3956 60.382 60.382 -27.3956 -48201.8164 27700.1328)">
		<stop  offset="0" style="stop-color:#B0F0D2"/>
		<stop  offset="1" style="stop-color:#B0F0D2;stop-opacity:0"/>
	</linearGradient>
	<path class="st11" d="M472.56,120.2l-77.75,37.1l-6.02,0.14v-25.16l25.67-14.82c0.9-0.52,2.03-0.38,2.78,0.34
		c0.74,0.72,0.92,1.85,0.43,2.76c0,0,0,0,0,0c-0.49,0.91-0.31,2.04,0.43,2.76c0.74,0.72,1.87,0.86,2.77,0.34l16.71-9.65l28.13-0.99
		L472.56,120.2z"/>
</g>
<g transform="matrix(1.03339,0,0,1.03339,-87.1683,-34.1981)">
	
		<linearGradient id="SVGID_8_" gradientUnits="userSpaceOnUse" x1="-72.5133" y1="841.0883" x2="-72.0754" y2="841.0883" gradientTransform="matrix(26.8365 78.8322 78.8322 -26.8365 -63926.3711 28409.9023)">
		<stop  offset="0" style="stop-color:#B0F0D2"/>
		<stop  offset="1" style="stop-color:#B0F0D2;stop-opacity:0"/>
	</linearGradient>
	<path class="st12" d="M480.66,128.69l15.54,16.28l-22.06,10.53l-85.35,1.94v-0.61c11.44-4.54,22.53-8.89,28.3-11.15
		c0.67-0.27,1.44-0.1,1.93,0.43c0.49,0.52,0.62,1.3,0.32,1.95c0,0,0,0,0,0c-0.53,1.15-0.25,2.52,0.68,3.38
		c0.94,0.86,2.33,1.01,3.43,0.37c7.51-4.34,18.66-10.77,25.85-14.93c0.9-0.52,2.03-0.38,2.78,0.34s0.92,1.85,0.43,2.76c0,0,0,0,0,0
		c-0.49,0.91-0.31,2.04,0.43,2.76c0.74,0.72,1.87,0.86,2.77,0.34L480.66,128.69z"/>
</g>
<g transform="matrix(1.03339,0,0,1.03339,-87.1683,-34.1981)">
	
		<linearGradient id="SVGID_9_" gradientUnits="userSpaceOnUse" x1="-68.133" y1="847.1808" x2="-67.6951" y2="847.1808" gradientTransform="matrix(51.4366 126.9137 126.9137 -51.4366 -103731.0625 52309.6094)">
		<stop  offset="0" style="stop-color:#B0F0D2"/>
		<stop  offset="1" style="stop-color:#B0F0D2;stop-opacity:0"/>
	</linearGradient>
	<path class="st13" d="M316.87,114.79l45.89,0.8l-87.78,41.89l-30.64-0.04l22.79-25.11c0.81,0.32,1.74,0.26,2.53-0.19
		c7.51-4.34,18.66-10.77,25.85-14.93c0.9-0.52,2.03-0.38,2.77,0.34c0.74,0.72,0.92,1.85,0.43,2.76c0,0,0,0,0,0
		c-0.49,0.91-0.32,2.04,0.43,2.76c0.74,0.72,1.88,0.86,2.78,0.34L316.87,114.79z"/>
</g>
<g transform="matrix(1.03339,0,0,1.03339,-87.1683,-34.1981)">
	
		<linearGradient id="SVGID_10_" gradientUnits="userSpaceOnUse" x1="-71.5053" y1="844.5185" x2="-71.0673" y2="844.5185" gradientTransform="matrix(37.4593 86.1003 86.1003 -37.4593 -69716.5 37908.6289)">
		<stop  offset="0" style="stop-color:#B0F0D2"/>
		<stop  offset="1" style="stop-color:#B0F0D2;stop-opacity:0"/>
	</linearGradient>
	<path class="st14" d="M381.78,118.92v25.8l-26.96,12.86l-81.6-0.11c9.84-3.9,18.93-7.46,23.97-9.43c0.67-0.27,1.44-0.1,1.93,0.43
		c0.49,0.52,0.62,1.3,0.32,1.95c0,0,0,0,0,0c-0.53,1.15-0.25,2.52,0.68,3.38c0.94,0.86,2.33,1.01,3.42,0.37
		c7.51-4.33,18.66-10.77,25.85-14.93c0.9-0.52,2.03-0.38,2.78,0.34c0.74,0.72,0.92,1.85,0.43,2.76v0c-0.49,0.91-0.31,2.04,0.43,2.76
		c0.74,0.72,1.87,0.86,2.77,0.34L381.78,118.92z"/>
</g>
<g transform="matrix(1.03339,0,0,1.03339,-87.1683,-34.1981)">
	
		<linearGradient id="SVGID_11_" gradientUnits="userSpaceOnUse" x1="-78.9739" y1="837.7809" x2="-78.5359" y2="837.7809" gradientTransform="matrix(8.3864 41.932 41.932 -8.3864 -34358.125 10524.7969)">
		<stop  offset="0" style="stop-color:#566697"/>
		<stop  offset="1" style="stop-color:#21336A"/>
	</linearGradient>
	<path class="st15" d="M99.3,182.62l15.73,3.41l8.34,25.59l-15.92,0.76L99.3,182.62z"/>
</g>
<g transform="matrix(1.30951,0,0.268298,1.19595,-729.332,-204.039)">
	
		<linearGradient id="SVGID_12_" gradientUnits="userSpaceOnUse" x1="265.4148" y1="879.8867" x2="265.8527" y2="879.8867" gradientTransform="matrix(-106.2722 -140.9884 -150.5355 68.1701 161276.0156 -22219.3926)">
		<stop  offset="0" style="stop-color:#08122A"/>
		<stop  offset="1" style="stop-color:#37508A"/>
	</linearGradient>
	<path class="st16" d="M606.55,307.68c11.91,0,21.56,10.03,21.56,22.39c0,12.37-9.65,22.39-21.56,22.39
		c-11.91,0-21.56-10.03-21.56-22.39C584.99,317.71,594.64,307.68,606.55,307.68z"/>
</g>
<g transform="matrix(1.30951,0,0.268298,1.19595,-235.931,-204.039)">
	
		<linearGradient id="SVGID_13_" gradientUnits="userSpaceOnUse" x1="-110.8611" y1="880.9354" x2="-110.4231" y2="880.9354" gradientTransform="matrix(-106.2722 -140.9884 -150.5355 68.1701 121234.4609 -75341.4062)">
		<stop  offset="0" style="stop-color:#08122A"/>
		<stop  offset="1" style="stop-color:#37508A"/>
	</linearGradient>
	<path class="st17" d="M394.79,307.68c11.91,0,21.56,10.03,21.56,22.39c0,12.37-9.65,22.39-21.56,22.39s-21.56-10.03-21.56-22.39
		C373.23,317.71,382.88,307.68,394.79,307.68z"/>
</g>
<g transform="matrix(0.610175,0,0.125015,0.557261,332.406,465.755)">
	
		<ellipse transform="matrix(0.5745 -0.8185 0.8185 0.5745 322.2517 -367.1906)" class="st18" cx="-192.06" cy="-493.56" rx="18.77" ry="25.72"/>
</g>
<g transform="matrix(0.610175,0,0.125015,0.557261,825.807,465.755)">
	
		<ellipse transform="matrix(0.5745 -0.8185 0.8185 0.5745 128.8947 -739.1578)" class="st18" cx="-646.52" cy="-493.56" rx="18.77" ry="25.72"/>
</g>
<g transform="matrix(0.263692,0,0.0540263,0.240825,858.439,797.601)">
	
		<ellipse transform="matrix(0.5745 -0.8185 0.8185 0.5745 1144.8754 -2837.6272)" class="st19" cx="-2156.99" cy="-2520.03" rx="18.77" ry="25.72"/>
</g>
<g transform="matrix(0.263692,0,0.0540263,0.240825,1351.84,797.601)">
	
		<ellipse transform="matrix(0.5745 -0.8185 0.8185 0.5745 697.4551 -3698.3462)" class="st19" cx="-3208.6" cy="-2520.03" rx="18.77" ry="25.72"/>
</g>
<g transform="matrix(1.03339,0,0,1.03339,-87.1683,-34.1981)">
	
		<linearGradient id="SVGID_14_" gradientUnits="userSpaceOnUse" x1="-74.7628" y1="837.2306" x2="-74.3248" y2="837.2306" gradientTransform="matrix(2.1469 49.3791 49.3791 -2.1469 -41022.4922 5680.665)">
		<stop  offset="0" style="stop-color:#566697"/>
		<stop  offset="1" style="stop-color:#21336A"/>
	</linearGradient>
	<path class="st20" d="M117,196.41l6.07,18.81l78.56,0.15l-5.91-18.65L117,196.41z"/>
</g>
<g transform="matrix(1.03339,0,0,1.03339,249.162,-34.1981)">
	
		<linearGradient id="SVGID_15_" gradientUnits="userSpaceOnUse" x1="-400.3866" y1="834.2256" x2="-399.9487" y2="834.2256" gradientTransform="matrix(2.1469 49.3791 49.3791 -2.1469 -40323.75 21751.7383)">
		<stop  offset="0" style="stop-color:#566697"/>
		<stop  offset="1" style="stop-color:#21336A"/>
	</linearGradient>
	<path class="st21" d="M-65.92,196.41l6.07,18.81L87.2,215l-5.91-18.65L-65.92,196.41z"/>
</g>
<g transform="matrix(-1.03339,0,0,1.03339,3028.82,-34.1981)">
	
		<linearGradient id="SVGID_16_" gradientUnits="userSpaceOnUse" x1="3088.2454" y1="878.9855" x2="3088.6833" y2="878.9855" gradientTransform="matrix(-2.1469 -49.3791 49.3791 -2.1469 -34255.2461 154573.8125)">
		<stop  offset="0" style="stop-color:#566697"/>
		<stop  offset="1" style="stop-color:#21336A"/>
	</linearGradient>
	<path class="st22" d="M2486.76,196.41l6.07,18.81l48.93-0.07l7.98-18.65L2486.76,196.41z"/>
</g>
<g transform="matrix(1.03339,0,0,1.03339,-87.1683,-34.1981)">
	
		<linearGradient id="SVGID_17_" gradientUnits="userSpaceOnUse" x1="-49.5802" y1="870.1248" x2="-49.1422" y2="870.1248" gradientTransform="matrix(-0.4473 -48.3056 -48.3056 0.4473 42170.4219 -2560.02)">
		<stop  offset="0" style="stop-color:#566697"/>
		<stop  offset="1" style="stop-color:#182752"/>
	</linearGradient>
	<path class="st23" d="M197.94,203.74l3.69,11.63l-78.56-0.15l-3.59-11.12L197.94,203.74z"/>
</g>
<g transform="matrix(1.03339,0,0,1.03339,249.162,-34.1981)">
	
		<linearGradient id="SVGID_18_" gradientUnits="userSpaceOnUse" x1="-375.0082" y1="873.2022" x2="-374.5702" y2="873.2022" gradientTransform="matrix(-0.4473 -48.3056 -48.3056 0.4473 42024.8438 -18281.7129)">
		<stop  offset="0" style="stop-color:#566697"/>
		<stop  offset="1" style="stop-color:#182752"/>
	</linearGradient>
	<path class="st24" d="M83.52,203.37L87.2,215l-147.05,0.22l-3.59-11.12L83.52,203.37z"/>
</g>
<g transform="matrix(-1.03339,0,0,1.03339,3028.82,-34.1981)">
	
		<linearGradient id="SVGID_19_" gradientUnits="userSpaceOnUse" x1="3065.2854" y1="827.3983" x2="3065.7234" y2="827.3983" gradientTransform="matrix(0.4473 48.3056 -48.3056 0.4473 41115.3359 -148216.2812)">
		<stop  offset="0" style="stop-color:#566697"/>
		<stop  offset="1" style="stop-color:#182752"/>
	</linearGradient>
	<path class="st25" d="M2547.23,203.51l-5.47,11.63l-48.93,0.07l-3.59-11.12L2547.23,203.51z"/>
</g>
<g transform="matrix(1,-0.082818,0,1,13.7149,128.516)">
	<path class="st1" d="M305.98-64.09c0-0.75-0.32-1.5-0.87-2.06c-0.56-0.56-1.3-0.87-2.05-0.87c-4.31,0-12.26,0-15.79,0
		c-1,0-1.77,0.77-1.77,1.78v0c0,0.75,0.32,1.5,0.87,2.06c0.55,0.56,1.3,0.87,2.05,0.87c4.32,0,12.26,0,15.79,0
		C305.21-62.31,305.98-63.08,305.98-64.09C305.98-64.09,305.98-64.09,305.98-64.09z"/>
</g>
</svg>
