<?xml version="1.0" encoding="utf-8"?>
<!-- Generator: Adobe Illustrator 25.3.1, SVG Export Plug-In . SVG Version: 6.00 Build 0)  -->
<svg version="1.1" id="Layer_1" xmlns="http://www.w3.org/2000/svg" xmlns:xlink="http://www.w3.org/1999/xlink" x="0px" y="0px"
	 viewBox="0 0 792 445.5" style="enable-background:new 0 0 792 445.5;" xml:space="preserve">
<style type="text/css">
	.st0{fill:url(#SVGID_1_);}
	.st1{fill:url(#SVGID_2_);}
	.st2{fill:#F9D39F;}
	.st3{fill:url(#SVGID_3_);}
	.st4{fill:url(#SVGID_4_);}
	.st5{fill:url(#SVGID_5_);}
	.st6{fill:url(#SVGID_6_);}
	.st7{fill:url(#SVGID_7_);}
	.st8{fill:url(#SVGID_8_);}
	.st9{fill:#BE8373;fill-opacity:0.9262;}
	.st10{fill:#555D5F;fill-opacity:0.9262;}
	.st11{fill:url(#SVGID_9_);}
	.st12{fill:url(#SVGID_10_);}
	.st13{fill:url(#SVGID_11_);}
	.st14{fill:#F4E1B6;}
	.st15{fill:url(#SVGID_12_);}
	.st16{fill:url(#SVGID_13_);}
	.st17{fill:url(#SVGID_14_);}
	.st18{fill:url(#SVGID_15_);}
	.st19{fill:url(#SVGID_16_);}
	.st20{fill:url(#SVGID_17_);}
	.st21{fill:url(#SVGID_18_);}
	.st22{fill:url(#SVGID_19_);}
	.st23{fill:url(#SVGID_20_);}
	.st24{fill:#222C3A;}
	.st25{fill:url(#SVGID_21_);}
	.st26{fill:#F7AF65;}
	.st27{fill:#F7974E;}
	.st28{fill:url(#SVGID_22_);}
	.st29{fill:url(#SVGID_23_);}
	.st30{fill:url(#SVGID_24_);}
	.st31{fill:#08122A;}
	.st32{fill:url(#SVGID_25_);}
	.st33{fill:url(#SVGID_26_);}
	.st34{fill:url(#SVGID_27_);}
	.st35{fill:#277BCC;}
	.st36{fill:#FFF041;}
	.st37{fill:url(#SVGID_28_);}
	.st38{fill:#BF2424;}
	.st39{fill:#FFFFFF;}
	.st40{fill:url(#SVGID_29_);}
	.st41{fill:url(#SVGID_30_);}
	.st42{fill:url(#SVGID_31_);}
	.st43{fill:url(#SVGID_32_);}
	.st44{fill:url(#SVGID_33_);}
	.st45{fill:url(#SVGID_34_);}
	.st46{fill:url(#SVGID_35_);}
	.st47{fill:url(#SVGID_36_);}
	.st48{fill:#2049A9;}
	.st49{fill:#D0DBF6;}
	.st50{fill:url(#SVGID_37_);}
	.st51{fill:url(#SVGID_38_);}
	.st52{fill:url(#SVGID_39_);}
	.st53{fill:url(#SVGID_40_);}
	.st54{fill:url(#SVGID_41_);}
	.st55{fill:url(#SVGID_42_);}
	.st56{fill:url(#SVGID_43_);}
	.st57{fill:url(#SVGID_44_);}
	.st58{fill:url(#SVGID_45_);}
	.st59{fill:url(#SVGID_46_);}
	.st60{fill:url(#SVGID_47_);}
</style>
<g transform="matrix(1,0,0,1,2207.55,1348.79)">
	
		<linearGradient id="SVGID_1_" gradientUnits="userSpaceOnUse" x1="-2350.1028" y1="-585.9737" x2="-2349.7212" y2="-585.9737" gradientTransform="matrix(-167.173 371.495 371.495 167.173 -176962.7812 969803.8125)">
		<stop  offset="0" style="stop-color:#F9E4B8"/>
		<stop  offset="1" style="stop-color:#FBA46F"/>
	</linearGradient>
	<path class="st0" d="M-1415.55-1343.13v434.17c0,3.13-2.54,5.67-5.67,5.67h-780.67c-3.13,0-5.67-2.54-5.67-5.67v-434.17
		c0-3.13,2.54-5.66,5.67-5.66h780.67C-1418.09-1348.79-1415.55-1346.25-1415.55-1343.13"/>
</g>
<linearGradient id="SVGID_2_" gradientUnits="userSpaceOnUse" x1="-142.9391" y1="764.9333" x2="-142.5575" y2="764.9333" gradientTransform="matrix(369.561 -731.381 -731.381 -369.561 612721.125 178339.1406)">
	<stop  offset="0" style="stop-color:#C8D295"/>
	<stop  offset="1" style="stop-color:#C8D295;stop-opacity:0"/>
</linearGradient>
<path class="st1" d="M170.98,0h615.35c3.13,0,5.67,2.54,5.67,5.66v234.38c0,0-27.89-4.89-50.24-8.8
	c-18.05-3.16-35.14-10.37-49.99-21.09c0,0,0,0,0,0c-39.98-28.85-89.65-40.94-138.41-33.67c-0.53,0.08-1.06,0.16-1.59,0.24
	c-17.47,2.6-35.28,1.61-52.35-2.92c-13.46-3.57-29.92-7.93-43.67-11.58c-18.36-4.87-35.31-14.02-49.45-26.7l0,0
	c-12.7-11.39-30.07-16.04-46.77-12.53c-2.99,0.63-5.99,1.26-8.87,1.87c-11.82,2.49-24.01-2.03-31.36-11.61
	c-3.81-4.97-7.9-10.31-11.27-14.71c-4.53-5.91-11.69-9.18-19.12-8.72c-3.85,0.24-8.11,0.5-11.9,0.73
	c-6.65,0.41-12.89-3.25-15.77-9.25l0,0c-14.87-30.93-44.8-51.86-78.96-55.22c-18.76-1.84-35.09-3.45-35.09-3.45L170.98,0z"/>
<g transform="matrix(1,0,0,1,-162.529,3.09581)">
	<path class="st2" d="M408.35,25.61l273.53,137.06L555.71,89.83c0,0-1.83-14.89-19.38-14.58c-13.01-12.4-4.84-28.13-27.83-20.87
		c-22.99,7.26-0.3-19.66-25.11-17.85c-24.8,1.81-9.56-3.06-28.08-0.32C436.82,38.95,408.35,25.61,408.35,25.61z"/>
</g>
<g transform="matrix(1,0,0,1,-162.529,3.09581)">
	
		<linearGradient id="SVGID_3_" gradientUnits="userSpaceOnUse" x1="21.3872" y1="756.6592" x2="21.7689" y2="756.6592" gradientTransform="matrix(-57.2721 123.832 123.832 57.2721 -91920.3047 -45907.707)">
		<stop  offset="0" style="stop-color:#F9E4B8"/>
		<stop  offset="1" style="stop-color:#FBA46F"/>
	</linearGradient>
	<path class="st3" d="M408.35,25.61l273.53,137.06L555.71,89.83c0,0-1.83-14.89-19.38-14.58c-13.01-12.4-4.84-28.13-27.83-20.87
		c-22.99,7.26-0.3-19.66-25.11-17.85c-24.8,1.81-9.56-3.06-28.08-0.32C436.82,38.95,408.35,25.61,408.35,25.61z"/>
</g>
<g transform="matrix(1,0,0,1,232.184,12.3832)">
	
		<linearGradient id="SVGID_4_" gradientUnits="userSpaceOnUse" x1="-372.6131" y1="745.7305" x2="-372.2314" y2="745.7305" gradientTransform="matrix(-57.2721 123.832 123.832 57.2721 -113376.2734 3502.3044)">
		<stop  offset="0" style="stop-color:#F9E4B8"/>
		<stop  offset="1" style="stop-color:#FBA46F"/>
	</linearGradient>
	<path class="st4" d="M164.29,19.87l273.53,137.06L311.65,84.09c0,0-1.83-14.89-19.38-14.58c-13.01-12.4-4.84-28.13-27.83-20.87
		c-22.99,7.26-0.3-19.66-25.11-17.85c-24.8,1.81-9.56-3.06-28.08-0.32C192.76,33.21,164.29,19.87,164.29,19.87z"/>
</g>
<linearGradient id="SVGID_5_" gradientUnits="userSpaceOnUse" x1="-141.9675" y1="761.0133" x2="-141.5858" y2="761.0133" gradientTransform="matrix(-107.734 307.103 307.103 107.734 -248378.9375 -38317.2266)">
	<stop  offset="0" style="stop-color:#BB6E5C;stop-opacity:0.9262"/>
	<stop  offset="1" style="stop-color:#555D5F;stop-opacity:0.9262"/>
</linearGradient>
<path class="st5" d="M690.62,210.45l-38.65-55.96c-10.92-15.81-13.6-35.89-7.23-54.01l11.28-32.07l18.14-4.98l-11.34,31.67
	l24.58-5.2l30.72-62.86l36.66-10.15L690.62,210.45z M489.85,168.47l-14.1,3.2l36.76-63.81l26.34-7.24L489.85,168.47z"/>
<linearGradient id="SVGID_6_" gradientUnits="userSpaceOnUse" x1="-139.9682" y1="762.2292" x2="-139.5865" y2="762.2292" gradientTransform="matrix(-196.041 191.797 118.493 317.319 -117249.2266 -214945.875)">
	<stop  offset="0" style="stop-color:#BB6E5C;stop-opacity:0.9262"/>
	<stop  offset="1" style="stop-color:#555D5F;stop-opacity:0.9262"/>
</linearGradient>
<path class="st6" d="M460.86,175.04l-65.19,14.79l20.48-47.28l15.73-1.81l32.97-68.36l16.94-0.6l29.95-42.04l17.24-0.6
	L460.86,175.04z"/>
<linearGradient id="SVGID_7_" gradientUnits="userSpaceOnUse" x1="-142.0396" y1="763.4902" x2="-141.658" y2="763.4902" gradientTransform="matrix(-764.276 461.952 461.952 764.276 -460563.6875 -517721.0625)">
	<stop  offset="0" style="stop-color:#BB6E5C;stop-opacity:0.9262"/>
	<stop  offset="1" style="stop-color:#555D5F;stop-opacity:0.9262"/>
</linearGradient>
<path class="st7" d="M680.09,0c0,0-21.94,62.37-35.35,100.48c-6.37,18.12-3.69,38.2,7.23,54.01c20.99,30.39,53.52,77.49,53.52,77.49
	s38.4,156.56,18.46,155.08c-19.94-1.48-513.98-4.43-513.98-4.43l82.71-129.97l53.91-51.69l143.27-32.49L611.52,0H680.09z"/>
<g transform="matrix(0.846479,0,0,0.846479,248.63,70.2786)">
	
		<linearGradient id="SVGID_8_" gradientUnits="userSpaceOnUse" x1="-459.0835" y1="804.3105" x2="-458.7018" y2="804.3105" gradientTransform="matrix(-28.2392 65.7572 65.7572 28.2392 -65471.8672 7594.0767)">
		<stop  offset="0" style="stop-color:#76DF56"/>
		<stop  offset="1" style="stop-color:#07B9BD"/>
	</linearGradient>
	<path class="st8" d="M320.92,141.6c0,0,1-7.57,1.82-13.79c0.61-4.61,4.48-8.11,9.13-8.24c18.97-0.55,66.48-1.94,88.81-2.59
		c2.9-0.08,5.67,1.16,7.54,3.37c1.86,2.21,2.62,5.16,2.04,8c-1.19,5.9-2.39,11.81-2.39,11.81"/>
</g>
<g transform="matrix(1,0,0,1,-1,4)">
	<path class="st9" d="M724.86,319.21c0.53,3.16,1.04,6.29,1.52,9.38l-378.95-8.42L724.86,319.21z M720.9,297.41
		c0.58,3.01,1.15,6.04,1.71,9.07l-235.72,2.19L720.9,297.41z M296.16,283.02l354.47-8.31L269.4,298.47L296.16,283.02z
		 M713.53,261.73l-433.71,9.63l8.58-13.48l424.52,1.08C713.11,259.87,713.32,260.8,713.53,261.73z M705.77,229.02l0.33,0.48
		c0,0,0.9,3.68,2.36,9.91l-360.02,1.75L705.77,229.02z M694.53,212.73l2.37,3.44l-376.87,8.37l13.27-12.73L694.53,212.73z
		 M334.47,210.7l12.74-12.21l5.59-1.27l317.23-7.44L334.47,210.7z M645.66,141.98l-144.34,9l4.21-5.83l140.04-3.28L645.66,141.98z
		 M651.71,79.96l-103.77,6.47l7.21-9.98l98.62-2.31L651.71,79.96z"/>
</g>
<path class="st10" d="M724.24,321.69c0.53,3.16,1.04,6.29,1.52,9.38l-378.95-8.42L724.24,321.69z M720.28,299.88
	c0.58,3.01,1.15,6.04,1.71,9.07l-235.72,2.19L720.28,299.88z M295.55,285.49l354.47-8.31l-381.24,23.76L295.55,285.49z
	 M712.91,264.21l-433.71,9.63l8.58-13.48l424.52,1.08C712.49,262.34,712.7,263.27,712.91,264.21z M705.16,231.49l0.33,0.48
	c0,0,0.9,3.68,2.36,9.91l-360.02,1.75L705.16,231.49z M693.91,215.21l2.37,3.44l-376.87,8.37l13.27-12.73L693.91,215.21z
	 M333.85,213.17l12.74-12.21l5.59-1.27l317.23-7.44L333.85,213.17z M645.04,144.45l-144.34,9l4.21-5.83l140.04-3.28L645.04,144.45z
	 M651.09,82.43L547.32,88.9l7.21-9.98l98.62-2.31L651.09,82.43z"/>
<linearGradient id="SVGID_9_" gradientUnits="userSpaceOnUse" x1="-142.9451" y1="762.1213" x2="-142.5634" y2="762.1213" gradientTransform="matrix(-154.79 538.669 538.669 154.79 -432085.5625 -40752.0391)">
	<stop  offset="0" style="stop-color:#F8DFAB"/>
	<stop  offset="1" style="stop-color:#F8DFAB;stop-opacity:0"/>
</linearGradient>
<path class="st11" d="M726.96,445.5c-12.38-11.39-20.49-27.35-21.64-45.19c-4.87,1.63-10.08,2.52-15.5,2.52c-0.15,0-0.29,0-0.44,0
	c-7.4,2.8-15.41,4.32-23.78,4.32c-27.31,0-50.85-16.29-61.41-39.68c-5.41-1.72-10.41-4.35-14.82-7.72
	c-7.97,16.07-24.55,27.13-43.69,27.13c-19.05,0-35.56-10.95-43.58-26.89c-7.68,5.05-16.86,7.98-26.73,7.98
	c-2.37,0-4.7-0.17-6.98-0.5c-12.2,17.27-32.32,28.56-55.05,28.56c-37.17,0-67.35-30.18-67.35-67.35c0-6.77,1-13.31,2.86-19.47
	c-12.02-7.88-20.36-20.94-21.83-35.99c-22.64-4.2-39.82-24.07-39.82-47.92c0-26.9,21.84-48.74,48.74-48.74
	c23.02,0,42.34,15.99,47.43,37.47c8.73-4.14,18.49-6.45,28.79-6.45c14.39,0,27.72,4.52,38.67,12.22
	c25.4,1.66,45.52,22.82,45.52,48.63c0,2.24-0.15,4.44-0.45,6.6c4.56,2.12,8.73,4.92,12.39,8.28c3.77-33.61,32.32-59.77,66.93-59.77
	c32.43,0,59.54,22.97,65.93,53.52c7.58-2.96,15.84-4.59,24.46-4.59c23.09,0,43.48,11.64,55.62,29.37
	c8.08-5.95,18.06-9.47,28.87-9.47c17.82,0,33.42,9.59,41.92,23.88v123.6c0,3.13-2.54,5.67-5.67,5.67H726.96z"/>
<linearGradient id="SVGID_10_" gradientUnits="userSpaceOnUse" x1="-143.5786" y1="760.6065" x2="-143.1969" y2="760.6065" gradientTransform="matrix(-63.4118 228.904 294.412 49.3024 -232464.1094 -4379.8462)">
	<stop  offset="0" style="stop-color:#F8DFAB"/>
	<stop  offset="1" style="stop-color:#F8DFAB;stop-opacity:0"/>
</linearGradient>
<path class="st12" d="M299.62,257.79c8.93-9.97,21.89-16.25,36.32-16.25c23.02,0,42.34,15.99,47.43,37.47
	c8.73-4.14,18.49-6.45,28.79-6.45c14.39,0,27.72,4.52,38.67,12.22c25.4,1.66,45.52,22.82,45.52,48.63c0,2.24-0.15,4.44-0.45,6.6
	c4.56,2.12,8.73,4.92,12.39,8.28c3.77-33.61,32.32-59.77,66.93-59.77c32.43,0,59.54,22.97,65.93,53.51
	c7.58-2.96,15.84-4.59,24.46-4.59c23.09,0,43.48,11.64,55.62,29.37c8.08-5.95,18.06-9.47,28.87-9.47c17.82,0,33.42,9.59,41.92,23.88
	v58.61c0,3.13-2.54,5.67-5.67,5.67h-59.38c-12.38-11.39-20.49-27.35-21.64-45.19c-4.87,1.63-10.08,2.52-15.5,2.52
	c-0.15,0-0.29,0-0.44,0c-7.4,2.8-15.41,4.32-23.78,4.32c-27.31,0-50.85-16.29-61.41-39.68c-5.41-1.72-10.41-4.35-14.82-7.72
	c-7.97,16.07-24.55,27.13-43.69,27.13c-19.05,0-35.56-10.95-43.58-26.89c-7.68,5.05-16.86,7.98-26.73,7.98
	c-2.37,0-4.7-0.17-6.98-0.5c-12.2,17.27-32.32,28.56-55.05,28.56c-37.17,0-67.35-30.18-67.35-67.35c0-6.77,1-13.31,2.86-19.47
	c-12.02-7.88-20.36-20.94-21.83-35.99C316.22,271.22,306.66,265.66,299.62,257.79z"/>
<linearGradient id="SVGID_11_" gradientUnits="userSpaceOnUse" x1="-146.6961" y1="763.2585" x2="-146.3144" y2="763.2585" gradientTransform="matrix(267.013 141.246 141.246 -267.013 -67912.8672 224710.4531)">
	<stop  offset="0" style="stop-color:#E46C4A"/>
	<stop  offset="1" style="stop-color:#BE014E"/>
</linearGradient>
<path class="st13" d="M792,7.75V404.4c-16.18,5.93-8.66,14.63-48.79,13.92l-93.1-69.91c0,0,32.18-106.87,39.67-131.74
	c0.95-3.17,3.53-5.59,6.76-6.34c8.84-2.05,25.79-5.98,25.79-5.98L792,7.75z"/>
<g transform="matrix(1,0,0,1,0,4)">
	<path class="st14" d="M789.41,322.14l-133.09,3.17l2.29-7.62L789.41,322.14z M665.61,294.48l116.24-3.95v10.04l-117.23-2.79
		L665.61,294.48z M766.73,276.02l-96.25,2.29l1.66-5.51L766.73,276.02z M792,258l-114.58-2.73l0.31-1.04L792,250.34V258z
		 M792,239.49v1.03l-110.94,2.64l2.22-7.37L792,239.49z M792,220.04v5.16l-89.31-2.13L792,220.04z M789.03,194.72l-64.71,1.54
		l1.31-3.7L789.03,194.72z M792,171.8l-58.51-1.39l1.21-3.42l57.3-1.95V171.8z M792,153.98v0.08l-53.17,1.27l1.1-3.12L792,153.98z
		 M792,130.95v1.07l-45.3,1.08l1.29-3.65L792,130.95z M792,107.29l-35.85-0.85l2.1-5.92L792,99.37V107.29z M792,65.25l-21.07-0.5
		l1.81-5.09L792,59V65.25z"/>
</g>
<linearGradient id="SVGID_12_" gradientUnits="userSpaceOnUse" x1="-143.7189" y1="761.9267" x2="-143.3372" y2="761.9267" gradientTransform="matrix(193.737 350.568 524.964 -129.376 -371475.0312 149046.5469)">
	<stop  offset="0" style="stop-color:#303D4E"/>
	<stop  offset="1" style="stop-color:#18212C"/>
</linearGradient>
<path class="st15" d="M789.41,324.62l-133.09,3.17l2.29-7.62L789.41,324.62z M665.61,296.95L781.85,293v10.04l-117.23-2.79
	L665.61,296.95z M766.73,278.49l-96.25,2.29l1.66-5.51L766.73,278.49z M792,260.47l-114.58-2.73l0.31-1.04L792,252.81V260.47z
	 M792,241.96v1.03l-110.94,2.64l2.22-7.37L792,241.96z M792,222.52v5.16l-89.31-2.13L792,222.52z M789.03,197.2l-64.71,1.54
	l1.31-3.7L789.03,197.2z M792,174.27l-58.51-1.39l1.21-3.42l57.3-1.95V174.27z M792,156.46v0.08l-53.17,1.27l1.1-3.12L792,156.46z
	 M792,133.42v1.07l-45.3,1.08l1.29-3.65L792,133.42z M792,109.76l-35.85-0.85l2.1-5.92l33.75-1.15V109.76z M792,67.72l-21.07-0.5
	l1.81-5.09L792,61.47V67.72z"/>
<linearGradient id="SVGID_13_" gradientUnits="userSpaceOnUse" x1="-144.6806" y1="760.804" x2="-144.299" y2="760.804" gradientTransform="matrix(119.962 325.059 325.059 -119.962 -229232.1406 138491.8438)">
	<stop  offset="0" style="stop-color:#303D4E"/>
	<stop  offset="1" style="stop-color:#18212C"/>
</linearGradient>
<path class="st16" d="M792,171.25V404.4c-14.23,5.22-10.13,12.56-36.21,13.79l-29.72-12.74l-18.08-13.58L792,171.25z"/>
<linearGradient id="SVGID_14_" gradientUnits="userSpaceOnUse" x1="-142.683" y1="763.5933" x2="-142.3014" y2="763.5933" gradientTransform="matrix(-718.228 746.09 746.09 718.228 -671873.9375 -441890.7188)">
	<stop  offset="0" style="stop-color:#E79A5F"/>
	<stop  offset="0.29" style="stop-color:#E3694A"/>
	<stop  offset="1" style="stop-color:#BE014E"/>
</linearGradient>
<path class="st17" d="M180.41,0l33.21,121.46l31.31,8.86l38.99,97.48l31.9,2.36l52.58,142.38L106.53,351L72.84,0H180.41z"/>
<g transform="matrix(1,0,0,1,0,4)">
	<path class="st14" d="M352.15,326.06l2.33,6.32l-149.62-8.96v-6.18L352.15,326.06z M247.06,312.7l97.55,3.47l-109.65,1.07
		L247.06,312.7z M343.81,303.48l2.33,6.31l-145.06-8.68v-6.18L343.81,303.48z M337.38,286.06l1.37,3.69l-82.61-0.8L337.38,286.06z
		 M331.81,270.98l1.56,4.24l-94.73-0.92L331.81,270.98z M192.99,257.12l97.55,3.47l-109.65,1.07L192.99,257.12z M320.56,240.51
		l1.45,3.93l-87.8-0.85L320.56,240.51z M169.93,232.17l97.55,3.47l-109.65,1.07L169.93,232.17z M279.19,213.5l1.27,3.16l-70.83-0.69
		L279.19,213.5z M266.29,181.25l4.22,10.55l-85.46-2.36L266.29,181.25z M255.06,153.18l2.52,6.29l-50.98-1.41L255.06,153.18z
		 M142.7,142.56l97.55,3.47l-109.65,1.07L142.7,142.56z M245.34,128.87l2.58,6.46l-108.25-11.83v-6.18L245.34,128.87z
		 M210.71,108.36l0.08,0.29l-103.26,1.01l12.1-4.54L210.71,108.36z M199.04,65.65l1.64,6l-64.55,7.06v-6.18L199.04,65.65z
		 M195.22,51.71l0.46,1.66l-37.1-0.36L195.22,51.71z M188.79,28.17l0.09,0.34L86.74,29.5l12.1-4.54L188.79,28.17z"/>
</g>
<linearGradient id="SVGID_15_" gradientUnits="userSpaceOnUse" x1="-142.9325" y1="763.4736" x2="-142.5508" y2="763.4736" gradientTransform="matrix(-424.943 356.39 722.692 209.557 -612214.0625 -108918.2031)">
	<stop  offset="0" style="stop-color:#303D4E"/>
	<stop  offset="1" style="stop-color:#18212C"/>
</linearGradient>
<path class="st18" d="M352.15,328.54l2.33,6.32l-149.62-8.96v-6.18L352.15,328.54z M247.06,315.18l97.55,3.47l-109.65,1.07
	L247.06,315.18z M343.81,305.96l2.33,6.31l-145.06-8.68v-6.18L343.81,305.96z M337.38,288.53l1.37,3.69l-82.61-0.8L337.38,288.53z
	 M331.81,273.46l1.56,4.24l-94.73-0.92L331.81,273.46z M192.99,259.6l97.55,3.47l-109.65,1.07L192.99,259.6z M320.56,242.98
	l1.45,3.93l-87.8-0.85L320.56,242.98z M169.93,234.64l97.55,3.47l-109.65,1.07L169.93,234.64z M279.19,215.98l1.27,3.16l-70.83-0.69
	L279.19,215.98z M266.29,183.73l4.22,10.55l-85.46-2.36L266.29,183.73z M255.06,155.65l2.52,6.29l-50.98-1.41L255.06,155.65z
	 M142.7,145.03l97.55,3.47l-109.65,1.07L142.7,145.03z M245.34,131.34l2.58,6.46l-108.25-11.83v-6.18L245.34,131.34z M210.71,110.84
	l0.08,0.29l-103.26,1.01l12.1-4.54L210.71,110.84z M199.04,68.13l1.64,6l-64.55,7.06V75L199.04,68.13z M195.22,54.18l0.46,1.66
	l-37.1-0.36L195.22,54.18z M188.79,30.64l0.09,0.34L86.74,31.98l12.1-4.54L188.79,30.64z"/>
<linearGradient id="SVGID_16_" gradientUnits="userSpaceOnUse" x1="-142.8809" y1="763.509" x2="-142.4992" y2="763.509" gradientTransform="matrix(-367.237 426.042 624.553 250.513 -529077.25 -130267.9844)">
	<stop  offset="0" style="stop-color:#303D4E"/>
	<stop  offset="1" style="stop-color:#18212C"/>
</linearGradient>
<path class="st19" d="M145.05,0l59.71,270.34l46.67,12.41l55.56,84.75l-189.67-15.6c-4.04-9.78-8.99-22.01-14.08-35.13L75.61,28.83
	C78.55,22.84,83.34,11.17,87.78,0H145.05z"/>
<linearGradient id="SVGID_17_" gradientUnits="userSpaceOnUse" x1="-142.7985" y1="763.6886" x2="-142.4169" y2="763.6886" gradientTransform="matrix(-388.287 305.2 275.507 430.136 -265718.9062 -284755.3125)">
	<stop  offset="0" style="stop-color:#E46C4A"/>
	<stop  offset="1" style="stop-color:#BE014E"/>
</linearGradient>
<path class="st20" d="M189.33,356.85L0,363.08V5.66C0,2.54,2.54,0,5.67,0h114.75L189.33,356.85z"/>
<path class="st14" d="M169.04,257.67l2.58,13.36l-81.61,11.91L169.04,257.67z M6.83,218.19c6.14-0.94,145.1-9.92,145.1-9.92
	L29.53,231.3L6.83,218.19z M34.71,172.82l96.89-14.65L25.26,190.3L34.71,172.82z M139.64,105.43l2.32,12.03l-77.01,12.35
	L139.64,105.43z M134.21,77.29l1.09,5.66l-67.98,9.52L134.21,77.29z M127.39,41.96l0.01,0.03L14.86,67.89l4.73-9.93L127.39,41.96z
	 M0,34.42V20.44l86.7-4.54L0,34.42z"/>
<linearGradient id="SVGID_18_" gradientUnits="userSpaceOnUse" x1="-142.7445" y1="763.6341" x2="-142.3628" y2="763.6341" gradientTransform="matrix(-208.454 501.522 474.292 220.422 -391810.6562 -96695.1016)">
	<stop  offset="0" style="stop-color:#303D4E"/>
	<stop  offset="1" style="stop-color:#212325"/>
</linearGradient>
<path class="st21" d="M169.81,255.76l2.58,13.36l-81.61,11.91L169.81,255.76z M7.59,216.28c6.14-0.94,145.1-9.92,145.1-9.92
	L30.3,229.39L7.59,216.28z M35.48,170.91l96.89-14.65L26.02,188.4L35.48,170.91z M140.41,103.52l2.32,12.03L65.72,127.9
	L140.41,103.52z M134.97,75.38l1.09,5.66l-67.98,9.52L134.97,75.38z M128.15,40.05l0.01,0.03L15.63,65.99l4.73-9.93L128.15,40.05z
	 M0,32.68v-14.1L87.46,14L0,32.68z"/>
<linearGradient id="SVGID_19_" gradientUnits="userSpaceOnUse" x1="-142.9834" y1="763.6596" x2="-142.6017" y2="763.6596" gradientTransform="matrix(-159.332 441.306 270.972 259.488 -229640.3594 -134930.6719)">
	<stop  offset="0" style="stop-color:#303D4E"/>
	<stop  offset="1" style="stop-color:#18212C"/>
</linearGradient>
<path class="st22" d="M0,0h34.16l66.23,380.66c0,0-62.07-14.63-100.39-22.63V5.66C0,4.59,0,0,0,0z"/>
<linearGradient id="SVGID_20_" gradientUnits="userSpaceOnUse" x1="-144.1169" y1="763.0667" x2="-143.7353" y2="763.0667" gradientTransform="matrix(-109.963 195.16 195.16 109.963 -164691.2188 -55492.6719)">
	<stop  offset="0" style="stop-color:#E46C4A"/>
	<stop  offset="1" style="stop-color:#BE014E"/>
</linearGradient>
<path class="st23" d="M0,217.29c0,0,1.16-0.03,2.96-0.08c11.5-0.3,21.76,7.15,25.03,18.18c6.93,23.37,17.9,60.33,17.9,60.33
	l78.27,10.59l35.92,44.62L0,360.84V217.29z"/>
<path class="st24" d="M22.31,322.41l98.81,0.47L19.68,334.49"/>
<path class="st24" d="M13.79,303.21l68.92,2.63l-64.27,3.1"/>
<path class="st24" d="M3.57,263.87l26.02-5.73l-21.66,12.5"/>
<linearGradient id="SVGID_21_" gradientUnits="userSpaceOnUse" x1="-144.6673" y1="762.702" x2="-144.2857" y2="762.702" gradientTransform="matrix(-82.4416 137.351 140.207 80.7623 -118826.125 -41445.8633)">
	<stop  offset="0" style="stop-color:#303D4E"/>
	<stop  offset="1" style="stop-color:#18212C"/>
</linearGradient>
<path class="st25" d="M0,241.22l4.3,1.19l47.64,114.94L0,359.7V241.22z"/>
<path class="st26" d="M0,439.83v-94.29h792v94.29c0,3.13-2.54,5.67-5.67,5.67H0C0,444.06,0,439.83,0,439.83z"/>
<path class="st27" d="M200.78,345.54l170.38,36.44H138.39l232.77,30.13H0v-66.57H200.78z"/>
<g transform="matrix(1,0,0,1,0,9)">
	
		<linearGradient id="SVGID_22_" gradientUnits="userSpaceOnUse" x1="-157.2698" y1="746.1094" x2="-156.8882" y2="746.1094" gradientTransform="matrix(-1156.13 23.287 1966.2 13.6928 -1648365.625 -6209.8882)">
		<stop  offset="0" style="stop-color:#303D4E"/>
		<stop  offset="1" style="stop-color:#18212C"/>
	</linearGradient>
	<path class="st28" d="M63.45,339.27l141.79,18.9h189.64l22.45-7.68h230.41l144.15-12.41L63.45,339.27z"/>
</g>
<linearGradient id="SVGID_23_" gradientUnits="userSpaceOnUse" x1="-142.3092" y1="763.4331" x2="-141.9276" y2="763.4331" gradientTransform="matrix(-987.562 112.997 112.997 987.562 -226341.2656 -737516.875)">
	<stop  offset="0" style="stop-color:#E46C4A"/>
	<stop  offset="1" style="stop-color:#BE014E"/>
</linearGradient>
<path class="st29" d="M63.45,344.84l141.79,18.9h189.64l22.45-7.68h230.41l144.15-12.41L63.45,344.84z"/>
<linearGradient id="SVGID_24_" gradientUnits="userSpaceOnUse" x1="-193.173" y1="733.9634" x2="-192.7914" y2="733.9634" gradientTransform="matrix(-1013.42 6.5752 1723.5 3.8662 -1460252.5 -1218.448)">
	<stop  offset="0" style="stop-color:#303D4E"/>
	<stop  offset="1" style="stop-color:#18212C"/>
</linearGradient>
<path class="st30" d="M754.84,346.23l0.36,0.24l0.24,0.37l0.09,0.43l-0.09,0.43l-0.24,0.36l-0.36,0.24l-0.43,0.09H359.36
	l-48.14,5.66l-0.13,0.01h-195.2l-0.43-0.09c-0.36-0.24-0.37-0.24-0.61-0.61l-0.09-0.43c0.09-0.43,0.09-0.44,0.33-0.8l0.37-0.24
	l0.43-0.09h195.13l48.14-5.66l0.13-0.01h395.12C754.55,346.18,754.7,346.2,754.84,346.23z"/>
<g transform="matrix(1.03339,0,0,1.03339,-87.1683,-34.1981)">
	<rect x="465.5" y="315.38" class="st31" width="261.83" height="29.18"/>
</g>
<linearGradient id="SVGID_25_" gradientUnits="userSpaceOnUse" x1="-143.9985" y1="755.4415" x2="-143.6168" y2="755.4415" gradientTransform="matrix(-5.2949 120.647 120.647 5.2949 -91336.4609 13546.0547)">
	<stop  offset="0" style="stop-color:#DFD756"/>
	<stop  offset="1" style="stop-color:#BD5107"/>
</linearGradient>
<path class="st32" d="M511.71,206.53c0,0,1.14-8.62,1.99-15.02c0.52-3.91,3.79-6.86,7.73-6.98c18.56-0.54,69.97-2.04,91.89-2.68
	c2.45-0.07,4.8,0.98,6.38,2.85c1.58,1.87,2.22,4.37,1.73,6.77c-1.3,6.43-2.76,13.61-2.76,13.61"/>
<g transform="matrix(0.810386,0,0,0.810386,307.084,142.337)">
	
		<linearGradient id="SVGID_26_" gradientUnits="userSpaceOnUse" x1="-560.0178" y1="749.5949" x2="-559.6361" y2="749.5949" gradientTransform="matrix(3.0256 62.0256 62.0256 -3.0256 -44479.3867 37062.6875)">
		<stop  offset="0" style="stop-color:#DF569E"/>
		<stop  offset="1" style="stop-color:#BD0767"/>
	</linearGradient>
	<path class="st33" d="M265.57,80.39c0,0,1.44-10.85,2.28-17.24c0.35-2.63,2.55-4.61,5.2-4.69c17.09-0.5,77.1-2.25,97.44-2.84
		c1.64-0.05,3.23,0.66,4.29,1.92c1.06,1.26,1.49,2.94,1.16,4.55c-1.41,6.96-3.41,16.86-3.41,16.86"/>
</g>
<path class="st31" d="M630.32,203.94c1.88,0.03,3.62,1.37,4.13,3.22l0.01,0.05c0.66,2.67,1.36,5.27,1.9,7.96
	c0.47,2.55-1.67,5.22-4.4,5.14l-6.08-0.22l0.08-2.34c2.05,0.07,4.09,0.19,6.14,0.22c1.18,0,2.19-1.2,1.95-2.38
	c-0.57-2.62-1.21-5.23-1.87-7.83c-0.24-0.89-1.15-1.54-2.07-1.47l-9.5,0.86l-0.21-2.33c3.18-0.29,6.35-0.6,9.53-0.87
	C630.05,203.95,630.08,203.94,630.32,203.94z"/>
<linearGradient id="SVGID_27_" gradientUnits="userSpaceOnUse" x1="-145.8145" y1="747.5399" x2="-145.4328" y2="747.5399" gradientTransform="matrix(-2.3084 61.4029 61.4029 2.3084 -45668.0547 7429.7383)">
	<stop  offset="0" style="stop-color:#56C5DF"/>
	<stop  offset="1" style="stop-color:#079BBD"/>
</linearGradient>
<path class="st34" d="M503.15,226.37v-23.96l120.35-3.88l11.63,30.13l-76.65,2.82"/>
<path class="st35" d="M635.13,228.67l-5.06,0.19c1.44-0.92,2.82-1.81,4.11-2.65L635.13,228.67z M503.15,218.1l19.32,10.06
	l-19.32-1.78V218.1z M627.46,208.8l4.74,12.28l-86.94,0.36L627.46,208.8z M503.15,215.93v-5.3l116.65-5.22L503.15,215.93z"/>
<path class="st31" d="M605.1,213.59c8.39,0.07,16.67,2.94,23.29,7.99l14.02,10.77c0.53,0.58,0.78,0.7,0.95,1.5
	c0.32,1.45-0.89,3.09-2.43,3.16c-0.82,0.04-1-0.17-1.7-0.54c-4.72-3.63-9.43-7.26-14.16-10.88c-5.8-4.39-12.97-6.79-20.18-6.81
	c-30.65,0.05-61.3,0.2-91.95,0.4c-5.74,0.06-11.44,1.61-16.42,4.48l-12.99,7.5c-0.74,0.27-0.94,0.45-1.75,0.31
	c-1.46-0.26-2.52-2-2-3.45c0.28-0.77,0.54-0.86,1.14-1.36c7.24-4.18,14.24-9.14,22.07-11.3c3.22-0.88,6.56-1.34,9.9-1.38
	c30.6-0.19,61.2-0.26,91.8-0.4C604.83,213.59,604.96,213.59,605.1,213.59z"/>
<g transform="matrix(1.03339,0,0,1.03339,-87.1683,-34.1981)">
	<path class="st36" d="M470.21,342.96h-73.52l-12.39-43.11l112.28-4.39l38.72-45.17h177.59l41.56,47.24l-12.39,45.43h-32.21
		c-5.5-12.6-19.38-22.09-33.44-22.09s-23.68,9.5-23.53,22.09H528.03c-5.56-12.82-19.66-22.49-33.96-22.49
		S470.02,330.14,470.21,342.96z"/>
</g>
<g transform="matrix(1.03339,0,0,1.03339,-87.1683,-34.1981)">
	
		<linearGradient id="SVGID_28_" gradientUnits="userSpaceOnUse" x1="-57.4214" y1="762.8852" x2="-57.0397" y2="762.8852" gradientTransform="matrix(6.000000e-15 94.5218 94.5218 -6.000000e-15 -71540.1016 5730.1914)">
		<stop  offset="0" style="stop-color:#FFAE41"/>
		<stop  offset="1" style="stop-color:#FFAE41;stop-opacity:0"/>
	</linearGradient>
	<path class="st37" d="M385.62,304.47l0.08-0.82h125.07v4.38l29.04,26.22l89.94,2.4v-33h7.05v32.29h17.08l-0.01,0.03
		c-0.68,2.18-1.02,4.52-0.99,6.98H528.03c-5.56-12.82-19.66-22.49-33.96-22.49s-24.06,9.67-23.87,22.49h-73.52L385.62,304.47z
		 M742.04,342.96h-32.21c-3.77-8.63-11.47-15.8-20.47-19.47l31.66-19.84h31.73L742.04,342.96z M654,335.52L654,335.52L654,335.52
		L654,335.52z M654.14,335.11L654.14,335.11L654.14,335.11L654.14,335.11z M654.37,334.5L654.37,334.5L654.37,334.5L654.37,334.5z
		 M654.8,333.51L654.8,333.51L654.8,333.51L654.8,333.51z M655.27,332.54L655.27,332.54L655.27,332.54L655.27,332.54z
		 M656.12,331.05L656.12,331.05L656.12,331.05L656.12,331.05z M656.72,330.16L656.72,330.16L656.72,330.16L656.72,330.16z
		 M657.36,329.3L657.36,329.3L657.36,329.3L657.36,329.3z M657.77,328.8L657.77,328.8L657.77,328.8L657.77,328.8z M658.05,328.48
		L658.05,328.48L658.05,328.48L658.05,328.48z M658.49,328L658.49,328L658.49,328L658.49,328z M658.78,327.69L658.78,327.69
		L658.78,327.69L658.78,327.69z M659.24,327.24L659.24,327.24L659.24,327.24L659.24,327.24z M659.56,326.94L659.56,326.94
		L659.56,326.94L659.56,326.94z M659.72,326.8L659.72,326.8L659.72,326.8L659.72,326.8z M660.04,326.51l-0.01,0.01L660.04,326.51
		L660.04,326.51z M660.37,326.23l-0.01,0.01L660.37,326.23L660.37,326.23z M660.54,326.09L660.54,326.09L660.54,326.09
		L660.54,326.09z M660.88,325.82l-0.02,0.01L660.88,325.82L660.88,325.82z M661.23,325.55l-0.01,0.01L661.23,325.55L661.23,325.55z
		 M661.41,325.42l-0.01,0.01L661.41,325.42L661.41,325.42z M661.77,325.17l-0.02,0.01l0.01-0.01L661.77,325.17z M661.94,325.05
		L661.94,325.05L661.94,325.05L661.94,325.05z M662.12,324.92l-0.02,0.01L662.12,324.92L662.12,324.92z M662.32,324.79l-0.02,0.01
		l0.01,0L662.32,324.79z M662.69,324.56l-0.02,0.01l0.01-0.01L662.69,324.56z M662.87,324.44L662.87,324.44L662.87,324.44
		L662.87,324.44z M663.06,324.33l-0.02,0.01L663.06,324.33L663.06,324.33z M663.26,324.21l-0.02,0.01l0.01-0.01L663.26,324.21z
		 M663.64,323.99l-0.03,0.01l0.02-0.01L663.64,323.99z M663.84,323.88l-0.02,0.01l0,0L663.84,323.88z M664.03,323.78l-0.02,0.01
		L664.03,323.78L664.03,323.78z M664.24,323.67l-0.03,0.01l0.01-0.01L664.24,323.67z M664.64,323.47l-0.03,0.01l0.02-0.01
		L664.64,323.47z M689.17,323.41L689.17,323.41L689.17,323.41L689.17,323.41z M664.84,323.37l-0.02,0.01l0.01,0L664.84,323.37z
		 M665.04,323.27l-0.02,0.01L665.04,323.27L665.04,323.27z M665.26,323.17l-0.03,0.01l0.02-0.01L665.26,323.17z M688.59,323.18
		L688.59,323.18L688.59,323.18L688.59,323.18z M688.39,323.11L688.39,323.11L688.39,323.11L688.39,323.11z M665.45,323.08
		L665.45,323.08L665.45,323.08L665.45,323.08z M665.67,322.99l-0.03,0.01l0.02-0.01L665.67,322.99z M665.88,322.89l-0.03,0.01
		l0.01,0L665.88,322.89z M687.8,322.89l0.01,0l-0.02-0.01L687.8,322.89z M687.61,322.82L687.61,322.82L687.61,322.82L687.61,322.82z
		 M666.08,322.81l-0.02,0.01L666.08,322.81L666.08,322.81z M666.31,322.72l-0.03,0.01l0.02-0.01L666.31,322.72z M687.21,322.69
		L687.21,322.69l-0.01,0L687.21,322.69z M666.51,322.64l-0.01,0L666.51,322.64L666.51,322.64z M687.01,322.62l0.02,0l-0.03-0.01
		L687.01,322.62z M666.73,322.55l-0.03,0.01l0.02-0.01L666.73,322.55z M686.81,322.55l0.02,0L686.81,322.55L686.81,322.55z
		 M666.96,322.47l-0.03,0.01l0.01,0L666.96,322.47z M686.42,322.43L686.42,322.43l-0.02-0.01L686.42,322.43z M667.16,322.4l-0.01,0
		L667.16,322.4L667.16,322.4z M686.22,322.37l0.02,0.01l-0.04-0.01L686.22,322.37z M667.4,322.31l-0.04,0.01l0.02-0.01L667.4,322.31
		z M686.02,322.31l0.02,0L686.02,322.31L686.02,322.31z M667.61,322.24l-0.02,0.01l0.01,0L667.61,322.24z M685.62,322.19l0.02,0
		l-0.04-0.01L685.62,322.19z M667.83,322.17l-0.03,0.01l0.02-0.01L667.83,322.17z M685.42,322.13l0.02,0.01l-0.04-0.01
		L685.42,322.13z M668.07,322.09l-0.04,0.01l0.02,0L668.07,322.09z M685.22,322.08l0.02,0L685.22,322.08L685.22,322.08z
		 M668.27,322.03L668.27,322.03L668.27,322.03L668.27,322.03z M685.01,322.02L685.01,322.02L685.01,322.02L685.01,322.02z
		 M684.81,321.97l0.02,0l-0.05-0.01L684.81,321.97z M668.51,321.95l-0.04,0.01l0.02-0.01L668.51,321.95z M684.61,321.92l0.03,0.01
		l-0.05-0.01L684.61,321.92z M668.74,321.89l-0.03,0.01l0.01,0L668.74,321.89z M684.41,321.87l0.02,0L684.41,321.87L684.41,321.87z
		 M668.96,321.83l-0.03,0.01l0.02-0.01L668.96,321.83z M684.21,321.82L684.21,321.82l-0.02,0L684.21,321.82z M669.21,321.76
		l-0.04,0.01l0.02,0L669.21,321.76z M684.01,321.77l0.02,0l-0.05-0.01L684.01,321.77z M683.8,321.72l0.03,0.01l-0.05-0.01
		L683.8,321.72z M683.6,321.67l0.01,0L683.6,321.67L683.6,321.67z M669.67,321.64l-0.04,0.01l0.02-0.01L669.67,321.64z
		 M683.39,321.63l0.01,0l-0.04-0.01L683.39,321.63z M669.9,321.59l-0.03,0.01l0.01,0L669.9,321.59z M683.19,321.59l0.03,0
		l-0.06-0.01L683.19,321.59z M682.99,321.54l0.03,0.01l-0.05-0.01L682.99,321.54z M670.13,321.54l-0.03,0.01l0.02,0L670.13,321.54z
		 M682.78,321.5l0.01,0L682.78,321.5L682.78,321.5z M670.38,321.48l-0.05,0.01l0.02,0L670.38,321.48z M682.58,321.46l0.01,0
		l-0.05-0.01L682.58,321.46z M670.6,321.44L670.6,321.44L670.6,321.44L670.6,321.44z M682.38,321.42l0.03,0.01l-0.06-0.01
		L682.38,321.42z M670.85,321.38l-0.04,0.01l0.02-0.01L670.85,321.38z M682.17,321.39l0.03,0.01l-0.05-0.01L682.17,321.39z
		 M671.1,321.34l-0.04,0.01l0.01,0L671.1,321.34z M681.76,321.31l0.02,0l-0.05-0.01L681.76,321.31z M671.32,321.3l-0.03,0
		L671.32,321.3L671.32,321.3z M681.56,321.28l0.03,0l-0.06-0.01L681.56,321.28z M671.58,321.25l-0.05,0.01l0.02,0L671.58,321.25z
		 M681.35,321.25l0.04,0.01l-0.05-0.01L681.35,321.25z M681.15,321.22L681.15,321.22L681.15,321.22L681.15,321.22z M671.81,321.21
		l-0.02,0l0,0L671.81,321.21z M680.94,321.19l0.02,0l-0.06-0.01L680.94,321.19z M672.06,321.18l-0.04,0.01l0.03,0L672.06,321.18z
		 M680.73,321.16l0.03,0l-0.06-0.01L680.73,321.16z M672.32,321.14l-0.04,0.01l0.02,0L672.32,321.14z M680.53,321.13l0.03,0
		l-0.05-0.01L680.53,321.13z M672.55,321.11l-0.03,0L672.55,321.11L672.55,321.11z M680.33,321.11L680.33,321.11l-0.03,0
		L680.33,321.11z M680.12,321.08l0.02,0l-0.06-0.01L680.12,321.08z M672.81,321.07l-0.05,0.01l0.02,0L672.81,321.07z M679.91,321.06
		l0.04,0l-0.06-0.01L679.91,321.06z M673.06,321.05l-0.02,0l0.01,0L673.06,321.05z M679.7,321.04l0.04,0L679.7,321.04L679.7,321.04z
		 M673.31,321.02l-0.04,0l0.03,0L673.31,321.02z M679.5,321.01L679.5,321.01l-0.03,0L679.5,321.01z M673.57,320.99l-0.05,0l0.02,0
		L673.57,320.99z M679.29,320.99l0.03,0l-0.06-0.01L679.29,320.99z M679.09,320.98l0.04,0l-0.06-0.01L679.09,320.98z M673.8,320.97
		l-0.02,0L673.8,320.97L673.8,320.97z M678.88,320.96l0.03,0L678.88,320.96L678.88,320.96z M674.07,320.95l-0.05,0l0.03,0
		L674.07,320.95z M678.67,320.94L678.67,320.94l-0.04,0L678.67,320.94z M674.33,320.93l-0.03,0l0.01,0L674.33,320.93z
		 M678.46,320.93l0.03,0l-0.06,0L678.46,320.93z M678.26,320.92l0.04,0l-0.06,0L678.26,320.92z M674.58,320.92l-0.04,0l0.03,0
		L674.58,320.92z M678.05,320.91l0.03,0L678.05,320.91L678.05,320.91z M674.85,320.9l-0.05,0l0.02,0L674.85,320.9z M677.85,320.9
		l0.01,0l-0.05,0L677.85,320.9z M675.08,320.89l-0.01,0L675.08,320.89L675.08,320.89z M677.64,320.89l0.03,0l-0.06,0L677.64,320.89z
		 M675.36,320.88l-0.05,0l0.03,0L675.36,320.88z M677.43,320.88l0.04,0l-0.06,0L677.43,320.88z M677.22,320.87l0.02,0L677.22,320.87
		L677.22,320.87z M675.62,320.87l-0.03,0h0.01L675.62,320.87z M677.01,320.87l0.02,0l-0.05,0L677.01,320.87z M675.88,320.87l-0.04,0
		l0.03,0L675.88,320.87z M676.81,320.86l0.03,0l-0.06,0L676.81,320.86z M676.15,320.86l-0.05,0l0.02,0H676.15z M676.6,320.86l0.04,0
		l-0.06,0H676.6z"/>
</g>
<path class="st38" d="M687.98,289.66l-6.93,25.42c-6.44,0.18-18.35,0.57-18.35,0.57l8.01-25.87L687.98,289.66z"/>
<path class="st39" d="M313.33,287.42l17.1,0.51c0,0,6.99,22.76,4.83,23.35c-0.88,0.24-7.46,0.61-14.89,0.62L313.33,287.42z"/>
<g transform="matrix(1.03339,0,0,1.03339,-87.1683,-34.1981)">
	
		<linearGradient id="SVGID_29_" gradientUnits="userSpaceOnUse" x1="-49.5612" y1="782.7775" x2="-49.1795" y2="782.7775" gradientTransform="matrix(5.000000e-15 -80.1366 -80.1366 -5.000000e-15 63353.2344 -3646.1111)">
		<stop  offset="0" style="stop-color:#FFAE41"/>
		<stop  offset="1" style="stop-color:#FFAE41;stop-opacity:0"/>
	</linearGradient>
	<path class="st40" d="M629.73,294.36v42.29l-89.94-2.4l-29.04-26.22v-12.4l29.04-4.36L629.73,294.36z M653.86,335.94h-17.08v-42.99
		l68.51-4.65l32.14,5.07l-48.06,30.11c-4.14-1.68-8.55-2.63-12.98-2.63C665.09,320.86,656.66,327,653.86,335.94z"/>
</g>
<g transform="matrix(1.03339,0,0,1.03339,-87.1683,-34.1981)">
	<path class="st31" d="M544.51,258.29l-34.19,37.66l119.77,0.17v-36.34L544.51,258.29z"/>
</g>
<g transform="matrix(1.03339,0,0,1.03339,-87.1683,-34.1981)">
	<path class="st31" d="M636.19,259.61v36.34l101.76-2.31l-34.72-36.39L636.19,259.61z"/>
</g>
<g transform="matrix(1.03339,0,0,1.03339,-87.1683,-34.1981)">
	
		<linearGradient id="SVGID_30_" gradientUnits="userSpaceOnUse" x1="-63.0339" y1="761.055" x2="-62.6522" y2="761.055" gradientTransform="matrix(27.3956 60.382 60.382 -27.3956 -43567.4414 24906.8477)">
		<stop  offset="0" style="stop-color:#B0F0D2"/>
		<stop  offset="1" style="stop-color:#B0F0D2;stop-opacity:0"/>
	</linearGradient>
	<path class="st41" d="M709.19,263.51l-67.76,32.33l-5.24,0.12v-21.93l22.37-12.92c0.78-0.45,1.77-0.33,2.42,0.3
		c0.65,0.63,0.8,1.61,0.37,2.41c0,0,0,0,0,0c-0.43,0.8-0.27,1.78,0.38,2.41c0.65,0.63,1.63,0.75,2.42,0.3l14.56-8.41l24.51-0.86
		L709.19,263.51z"/>
</g>
<g transform="matrix(1.03339,0,0,1.03339,-87.1683,-34.1981)">
	
		<linearGradient id="SVGID_31_" gradientUnits="userSpaceOnUse" x1="-60.6357" y1="762.4384" x2="-60.254" y2="762.4384" gradientTransform="matrix(26.8365 78.8322 78.8322 -26.8365 -57803.1992 25505.9922)">
		<stop  offset="0" style="stop-color:#B0F0D2"/>
		<stop  offset="1" style="stop-color:#B0F0D2;stop-opacity:0"/>
	</linearGradient>
	<path class="st42" d="M716.25,270.9l13.54,14.19l-19.22,9.17l-74.38,1.69v-0.53c9.97-3.96,19.64-7.75,24.66-9.71
		c0.58-0.23,1.25-0.08,1.68,0.37c0.43,0.46,0.54,1.13,0.28,1.7c0,0,0,0,0,0c-0.46,1.01-0.22,2.2,0.6,2.94
		c0.82,0.75,2.03,0.88,2.98,0.32c6.54-3.78,16.26-9.39,22.53-13.01c0.78-0.45,1.77-0.33,2.42,0.3c0.65,0.63,0.8,1.61,0.37,2.41
		c0,0,0,0,0,0c-0.42,0.8-0.27,1.78,0.38,2.41c0.65,0.63,1.63,0.75,2.42,0.3L716.25,270.9z"/>
</g>
<g transform="matrix(1.03339,0,0,1.03339,-87.1683,-34.1981)">
	
		<linearGradient id="SVGID_32_" gradientUnits="userSpaceOnUse" x1="-57.4636" y1="767.8268" x2="-57.0819" y2="767.8268" gradientTransform="matrix(51.4366 126.9137 126.9137 -51.4366 -93947.7891 47021.4492)">
		<stop  offset="0" style="stop-color:#B0F0D2"/>
		<stop  offset="1" style="stop-color:#B0F0D2;stop-opacity:0"/>
	</linearGradient>
	<path class="st43" d="M573.52,258.8l39.99,0.7l-76.5,36.5l-26.7-0.04l19.86-21.88c0.71,0.28,1.52,0.23,2.2-0.16
		c6.55-3.78,16.26-9.39,22.53-13.01c0.78-0.45,1.77-0.33,2.42,0.3c0.65,0.63,0.8,1.61,0.38,2.41c0,0,0,0,0,0
		c-0.43,0.8-0.27,1.78,0.37,2.41c0.65,0.63,1.64,0.75,2.42,0.3L573.52,258.8z"/>
</g>
<g transform="matrix(1.03339,0,0,1.03339,-87.1683,-34.1981)">
	
		<linearGradient id="SVGID_33_" gradientUnits="userSpaceOnUse" x1="-59.8291" y1="765.5509" x2="-59.4474" y2="765.5509" gradientTransform="matrix(37.4593 86.1003 86.1003 -37.4593 -63098.2812 34088.9609)">
		<stop  offset="0" style="stop-color:#B0F0D2"/>
		<stop  offset="1" style="stop-color:#B0F0D2;stop-opacity:0"/>
	</linearGradient>
	<path class="st44" d="M630.08,262.39v22.49l-23.49,11.21l-71.11-0.1c8.58-3.39,16.5-6.5,20.88-8.22c0.58-0.23,1.25-0.08,1.68,0.37
		c0.43,0.46,0.54,1.13,0.28,1.7c0,0,0,0,0,0c-0.47,1.01-0.22,2.2,0.6,2.94c0.82,0.75,2.03,0.88,2.98,0.32
		c6.54-3.78,16.26-9.39,22.53-13.01c0.78-0.45,1.77-0.33,2.42,0.3c0.65,0.63,0.8,1.61,0.37,2.41v0c-0.42,0.8-0.27,1.78,0.38,2.41
		c0.65,0.63,1.63,0.75,2.42,0.3L630.08,262.39z"/>
</g>
<g transform="matrix(1.03339,0,0,1.03339,-87.1683,-34.1981)">
	
		<linearGradient id="SVGID_34_" gradientUnits="userSpaceOnUse" x1="-64.3471" y1="762.6604" x2="-63.9654" y2="762.6604" gradientTransform="matrix(8.3864 41.932 41.932 -8.3864 -31047.5137 9416.1562)">
		<stop  offset="0" style="stop-color:#566697"/>
		<stop  offset="1" style="stop-color:#21336A"/>
	</linearGradient>
	<path class="st45" d="M383.92,317.9l13.71,2.97l7.27,22.3l-13.87,0.66L383.92,317.9z"/>
</g>
<g transform="matrix(1.30951,0,0.268298,1.19595,-729.332,-204.039)">
	
		<linearGradient id="SVGID_35_" gradientUnits="userSpaceOnUse" x1="284.9561" y1="810.2369" x2="285.3378" y2="810.2369" gradientTransform="matrix(-106.2722 -140.9884 -150.5355 68.1701 153054.6875 -14604.8105)">
		<stop  offset="0" style="stop-color:#08122A"/>
		<stop  offset="1" style="stop-color:#37508A"/>
	</linearGradient>
	<path class="st46" d="M794.45,423.56c10.38,0,18.79,8.74,18.79,19.51c0,10.78-8.41,19.51-18.79,19.51
		c-10.38,0-18.79-8.74-18.79-19.51C775.66,432.3,784.07,423.56,794.45,423.56z"/>
</g>
<g transform="matrix(1.30951,0,0.268298,1.19595,-235.931,-204.039)">
	
		<linearGradient id="SVGID_36_" gradientUnits="userSpaceOnUse" x1="-91.2689" y1="811.3907" x2="-90.8872" y2="811.3907" gradientTransform="matrix(-106.2722 -140.9884 -150.5355 68.1701 113013.1328 -67726.8281)">
		<stop  offset="0" style="stop-color:#08122A"/>
		<stop  offset="1" style="stop-color:#37508A"/>
	</linearGradient>
	<path class="st47" d="M561.47,423.56c10.38,0,18.79,8.74,18.79,19.51c0,10.78-8.41,19.51-18.79,19.51
		c-10.38,0-18.79-8.74-18.79-19.51C542.68,432.3,551.1,423.56,561.47,423.56z"/>
</g>
<g transform="matrix(0.610175,0,0.125015,0.557261,332.406,465.755)">
	
		<ellipse transform="matrix(0.5745 -0.8185 0.8185 0.5745 295.3271 66.0451)" class="st48" cx="211.19" cy="-251.04" rx="16.36" ry="22.42"/>
</g>
<g transform="matrix(0.610175,0,0.125015,0.557261,825.807,465.755)">
	
		<ellipse transform="matrix(0.5745 -0.8185 0.8185 0.5745 82.5964 -343.1919)" class="st48" cx="-288.81" cy="-251.04" rx="16.36" ry="22.42"/>
</g>
<g transform="matrix(0.263692,0,0.0540263,0.240825,858.439,797.601)">
	
		<ellipse transform="matrix(0.5745 -0.8185 0.8185 0.5745 1082.5724 -1835.1348)" class="st49" cx="-1223.87" cy="-1958.86" rx="16.36" ry="22.42"/>
</g>
<g transform="matrix(0.263692,0,0.0540263,0.240825,1351.84,797.601)">
	
		<ellipse transform="matrix(0.5745 -0.8185 0.8185 0.5745 590.3223 -2782.095)" class="st49" cx="-2380.85" cy="-1958.86" rx="16.36" ry="22.42"/>
</g>
<g transform="matrix(1.03339,0,0,1.03339,-87.1683,-34.1981)">
	
		<linearGradient id="SVGID_37_" gradientUnits="userSpaceOnUse" x1="-61.7562" y1="762.0328" x2="-61.3745" y2="762.0328" gradientTransform="matrix(2.1469 49.3791 49.3791 -2.1469 -37060.2344 5011.1084)">
		<stop  offset="0" style="stop-color:#566697"/>
		<stop  offset="1" style="stop-color:#21336A"/>
	</linearGradient>
	<path class="st50" d="M399.35,329.92l5.29,16.39l68.46,0.13l-5.15-16.26L399.35,329.92z"/>
</g>
<g transform="matrix(1.03339,0,0,1.03339,249.162,-34.1981)">
	
		<linearGradient id="SVGID_38_" gradientUnits="userSpaceOnUse" x1="-387.3961" y1="758.5684" x2="-387.0145" y2="758.5684" gradientTransform="matrix(2.1469 49.3791 49.3791 -2.1469 -36361.4922 21082.1816)">
		<stop  offset="0" style="stop-color:#566697"/>
		<stop  offset="1" style="stop-color:#21336A"/>
	</linearGradient>
	<path class="st51" d="M198.1,329.92l5.29,16.39l128.15-0.19l-5.15-16.26L198.1,329.92z"/>
</g>
<g transform="matrix(-1.03339,0,0,1.03339,3028.82,-34.1981)">
	
		<linearGradient id="SVGID_39_" gradientUnits="userSpaceOnUse" x1="3075.6738" y1="793.8111" x2="3076.0554" y2="793.8111" gradientTransform="matrix(-2.1469 -49.3791 49.3791 -2.1469 -30309.8555 153904.25)">
		<stop  offset="0" style="stop-color:#566697"/>
		<stop  offset="1" style="stop-color:#21336A"/>
	</linearGradient>
	<path class="st52" d="M2257.33,329.92l5.29,16.39l42.64-0.06l6.96-16.26L2257.33,329.92z"/>
</g>
<g transform="matrix(1.03339,0,0,1.03339,-87.1683,-34.1981)">
	
		<linearGradient id="SVGID_40_" gradientUnits="userSpaceOnUse" x1="-45.5531" y1="784.1741" x2="-45.1714" y2="784.1741" gradientTransform="matrix(-0.4473 -48.3056 -48.3056 0.4473 38297.0469 -2197.1057)">
		<stop  offset="0" style="stop-color:#566697"/>
		<stop  offset="1" style="stop-color:#182752"/>
	</linearGradient>
	<path class="st53" d="M469.87,336.3l3.21,10.13l-68.46-0.13l-3.13-9.69L469.87,336.3z"/>
</g>
<g transform="matrix(1.03339,0,0,1.03339,249.162,-34.1981)">
	
		<linearGradient id="SVGID_41_" gradientUnits="userSpaceOnUse" x1="-370.9776" y1="787.7219" x2="-370.5959" y2="787.7219" gradientTransform="matrix(-0.4473 -48.3056 -48.3056 0.4473 38151.4688 -17918.7988)">
		<stop  offset="0" style="stop-color:#566697"/>
		<stop  offset="1" style="stop-color:#182752"/>
	</linearGradient>
	<path class="st54" d="M328.32,335.98l3.21,10.13l-128.15,0.19l-3.13-9.69L328.32,335.98z"/>
</g>
<g transform="matrix(-1.03339,0,0,1.03339,3028.82,-34.1981)">
	
		<linearGradient id="SVGID_42_" gradientUnits="userSpaceOnUse" x1="3061.1633" y1="751.66" x2="3061.5452" y2="751.66" gradientTransform="matrix(0.4473 48.3056 -48.3056 0.4473 37225.0938 -147853.3594)">
		<stop  offset="0" style="stop-color:#566697"/>
		<stop  offset="1" style="stop-color:#182752"/>
	</linearGradient>
	<path class="st55" d="M2310.02,336.11l-4.77,10.13l-42.64,0.06l-3.13-9.69L2310.02,336.11z"/>
</g>
<g>
	
		<linearGradient id="SVGID_43_" gradientUnits="userSpaceOnUse" x1="-148.8353" y1="772.1583" x2="-148.3658" y2="772.1583" gradientTransform="matrix(608.221 26.5081 321.74 -50.1112 -157334.8594 43036.4023)">
		<stop  offset="0" style="stop-color:#E46C4A"/>
		<stop  offset="1" style="stop-color:#BE014E"/>
	</linearGradient>
	<path class="st56" d="M792,350.7v87.83c0,3.85-3.12,6.97-6.97,6.97H394.4l111.02-20.43l0,0c0-15.2,11.91-27.73,27.09-28.49
		c38.36-1.94,103.9-5.25,103.9-5.25l25.14-35.72L792,350.7z"/>
	
		<linearGradient id="SVGID_44_" gradientUnits="userSpaceOnUse" x1="-148.029" y1="764.7851" x2="-147.5595" y2="764.7851" gradientTransform="matrix(426.374 93.4513 1155.34 -34.488 -820021.125 40571.2812)">
		<stop  offset="0" style="stop-color:#303D4E"/>
		<stop  offset="1" style="stop-color:#18212C"/>
	</linearGradient>
	<path class="st57" d="M455.22,434.31l92.85,4.54l-121.72,1.59l-1.68-0.51L455.22,434.31z M506,419.33l117.75,5.77l-121.73,1.59
		l-2.02-0.62l5.42-1l0,0C505.42,423.1,505.62,421.18,506,419.33z M757.64,399.16l-151.36,7.41l121.72,1.59L757.64,399.16z
		 M615.81,406.04l-104.26,1.36c1.88-2.38,4.13-4.46,6.67-6.14L615.81,406.04z M792,384.99v3.38l-16.36,4.97l-121.72-1.59L792,384.99
		z M792,366.13v7.16l-1.54,0.47l-121.72-1.59L792,366.13z M792,353.1v5.38l-86.75-1.14L792,353.1z"/>
	
		<linearGradient id="SVGID_45_" gradientUnits="userSpaceOnUse" x1="-149.3065" y1="764.4901" x2="-148.8351" y2="764.4901" gradientTransform="matrix(251.5 79.7401 681.483 -29.4279 -482846.5625 34781.5273)">
		<stop  offset="0" style="stop-color:#303D4E"/>
		<stop  offset="1" style="stop-color:#18212C"/>
	</linearGradient>
	<path class="st58" d="M785.03,445.5h-209.7l19.01-3.5l0,0c0-15.19,11.91-27.72,27.09-28.49c38.36-1.94,103.9-5.25,103.9-5.25
		l25.14-35.72l41.54-1.56v74.53C790.75,445.5,785.03,445.5,785.03,445.5z"/>
</g>
<linearGradient id="SVGID_46_" gradientUnits="userSpaceOnUse" x1="-143.5972" y1="764.0215" x2="-143.2155" y2="764.0215" gradientTransform="matrix(1177.86 142.301 142.301 -1177.86 60839.5508 920615.8125)">
	<stop  offset="0" style="stop-color:#F8DFAB"/>
	<stop  offset="1" style="stop-color:#F8DFAB;stop-opacity:0"/>
</linearGradient>
<path class="st59" d="M371.29,345.54l-2.48-1.09l105.4-10.76c0,0,2.15-20.65,41.3-18.93s24.95-19.79,60.23-12.48
	c35.28,7.31,59.8-17.21,84.32-2.58c24.52,14.63,29.68-13.34,68.4-12.48c38.35,0.85,15.08-64.14,63.54-51.16v109.46H371.29z"/>
<linearGradient id="SVGID_47_" gradientUnits="userSpaceOnUse" x1="-145.3555" y1="760.0968" x2="-144.9738" y2="760.0968" gradientTransform="matrix(60.5838 240.926 240.926 -60.5838 -173662.4844 81351.8828)">
	<stop  offset="0" style="stop-color:#F8DFAB"/>
	<stop  offset="1" style="stop-color:#F8DFAB;stop-opacity:0"/>
</linearGradient>
<path class="st60" d="M792,310.34v35.2H547.7c5.74-4.49,15.92-8.44,33.95-7.65c39.15,1.72,24.95-19.79,60.23-12.47
	c35.27,7.31,59.8-17.21,84.32-2.58C750.16,337.12,755.63,310.75,792,310.34z"/>
<g transform="matrix(1,-0.082818,0,1,13.7149,128.516)">
	<path class="st31" d="M560.98,111.67c0-0.66-0.27-1.31-0.76-1.79c-0.48-0.49-1.13-0.76-1.79-0.76c-3.76,0-10.69,0-13.76,0
		c-0.87,0-1.54,0.67-1.54,1.55v0c0,0.66,0.27,1.31,0.76,1.79c0.48,0.49,1.13,0.76,1.78,0.76c3.76,0,10.69,0,13.76,0
		C560.32,113.22,560.98,112.55,560.98,111.67C560.98,111.67,560.98,111.67,560.98,111.67z"/>
</g>
</svg>
